<?xml version="1.0" encoding="UTF-8"?>
<svg id="Layer_1" xmlns="http://www.w3.org/2000/svg" version="1.1" viewBox="0 0 909 866">
  <!-- Generator: Adobe Illustrator 29.1.0, SVG Export Plug-In . SVG Version: 2.1.0 Build 142)  -->
  <defs>
    <style>
      .st0 {
        fill: currentColor;
      }

      .st1 {
        fill: #fff;
      }
    </style>
  </defs>
  <path class="st1" d="M402,463c.2,1.7-2.3,1-3.5,1-6.1.2-12.2-1.5-18.1.9l-.8-1.8-7.6.9c.4-1.9,2-1.8,3.5-2,9.1-1.5,17.7-1.5,26.5,1Z"/>
  <path class="st1" d="M131,198l-2.3,3.2-18.7,10.8c1.3-3.7,19-15.7,21-14Z"/>
  <path class="st1" d="M401,453c.2,1.9-2,.7-3,.5-5.5-.9-9.6-2.1-15.5-1.6s-8.9,3.3-13.5,1.5c10.3-4.6,21.5-4.5,32-.5Z"/>
  <path class="st1" d="M404,458l.5-3c1.9,1.4,7.1,3.9,6,7l-15.7-6.3-11.8-2.7c7.4-.5,14.5,1.8,21,5Z"/>
  <g>
    <path class="st0" d="M228,717c3.5-.1,7,.2,10.5,0,21-1.2,42-3.5,63-4,4.2-.1,19-1.5,19.6,3.5.9,8-7,8.4-8.6,13.5s-.3,6.8-.4,10c19.8,4.9,40.3,8.9,59.5,16,3.1,1.2,7.2,2.3,9.4,4.7.6,1,.3,11.3,0,12.8-.5,2.5-3.3,3.8-2.8,6.8s4.6,5.2,6,8c7.6,14.7-4.4,29.6-20.5,25.4-3.1-.8-4-3.7-5.9-5.1-2.8-2.1-5.5-2.4-7.7-6.3-3.1-5.2-1.2-15.4,3.3-19.4,3-2.6,5.7-.6,4.5-7l-8,1,2-3c-9.6-.9-18.9-4.3-28.5-5s-19.9,1.5-29.8-2.2-4.9-3.4-6.8-4.2c-11.6-4.9-25.5-5.7-37.9-7.6,2.5,4.4,21.2,31.1,23.8,31.9,4.8,1.6,9.3-.8,13.6-.8s3.2.9,5.1.9c10.5,0,21-.2,31.5,0l-.6,3c-16.2-.5-32.5,1.3-48.5-1.6-1.9,1.4-.6,9.2-1,12s-1.9,2.7-1.9,4c-.1,2.5,5.9,8.6,6.7,13.2,1.6,9.5-2,18.5-11.1,22.5s-16.1.1-22.7-7.7-6.6-9.7-6.8-11.2c-.5-3.6,10.7-20.5,16.8-19.3l-1.9-4.5-6,.5c-.2-2.1,5-1,4-3.5s-6.7-5-8.7-6.9c-4.1-4-16.5-19.4-20.4-21.1-2.7-1.2-11.9.9-16.5.5-9.7-.9-13.1-4.4-14.1-14-4.6-.3-9.1.6-13.6,1.4-8.3,1.4-27,4.9-34.3,7.7s-6.7,7.2-9.5,8.5-7.1.9-10,1.5l2,2c-2-.3-6.9,2.7-8,0l4-.5-9.5-5.6c-8.6,3.2-26.5,2.6-33.8,6.3-1.7.9-1.9,2-2.6,3.5-2.8,5.3,2.8,6.3,4.7,10.1,5.1,10,2.1,21.7-8.5,26-8.7,3.6-14.3,1.9-21.6-3.9-11-8.9-6.1-26.7,7.3-29.8v-1.5c-4.3-1.8-3.8-16.7-2.1-19.1l65.9-23.5c1.1-4.8-4-4.4-6.3-6s-5.3-15.6-2.7-17.5l79.1,3.6-1-56.5c.7-3.9,5.7-2.8,6.1-4.1.4-2.8-.7-7.2,0-9.7s2.6-.7,3-3.2.4-13.4,0-14.9-4.1-1.3-5.5-3.7-.7-9-3.5-10.5c-7.6-3.8-24.9,6-29.8-5.3-1.7-3.9-2.7-5.2-4.4-8.5s-1.7-5.8-3-8.5c-8.7-.9-13.9-.7-13.9-11.1-7.5,1.4-14.2-.1-21.5,0s-7.6,1.7-12,1.1c-3-.4-4-2.3-6.1-2.8-11.8-2.7-14.2-1-25.6-8.4-28.5-18.3-23-44.6-23.7-74.3s.2-12.4,0-18.5c-4.6-.2-9.6,4.5-14,2.5s-7.7-13.4-7.8-18.3c0-9.8,17.4-12.2,17.8-16.7s-1.5-8.4-2.1-10.9c-5.1-22.6-14.1-45.4-19.6-68.4C10.1,306,1.1,226.1,8.1,165.6c1.6-13.6,18.5-18.1,30.3-16.5,7.7,1,33.3,15.3,39.1,20.9s8.1,10.4,8.4,17c-8.4,1.2-18,4.1-17.1,14.6s3.3,5.3,3.6,8.4-1.6,4.7-1.6,7.6c0,8.9,11.6,20,14.9,28.2.3,2.1-1.4,3.7-1.8,5.9-8.1,52.1-1.7,89.5,8.2,140.6,1.9,9.7,4.4,27.9,7.7,36.3s3.6,2.9,4.1-1c.9-8.1-8.4-46.9-10.8-57.3s1.1-6.8-2.2-6.3l1.9-1.4c-2.2-8.9-3.6-18.1-4.8-27.2s-3.1-21.3-3.2-30.8c-.2-23.2,4.2-46,9-68.5-2.6-1.1-1.8,2-2.5,2-4,0-14.1-16.3-13.3-20.3s4-4.5,3.7-6.1c-2.2-3.5-7.3-8.3-5.7-13s16.7-7.4,19.7-9.9c2.1-7.1-5.8-24.6,1.3-29.3s15.9-3.6,19.7-4.3c6.5-1.1,16.4-2.7,22.8-3.2s13.5,2.1,17,1.6,11.6-17.3,12.2-21.3c2.1-13.6-5-31.4-8.5-45s-2.9-5.7-3.2-7.8c-1.2-6.8-.4-16,1.9-22.4l-3,6c-1.5.2-1.7-2.4-1.7-3.3.3-3.5,2.6-7.3,3.7-10.7l-5,.5c2-1.3,3.1-3.9,4.6-5.4,7.4-7.5,19.6-20.5,27.4-26.6s8.7-5.9,7-2-5.9,4.9-4.5,7.5c8.5-4.3,26.5-14.9,35.8-12.8s7.1,3.1,5.7,4.8c-6.6,2.3-12.5,2-19,5.5s-2.5,0-1.9,2.5l13-3-1,3h2c0-.7,0-1.6.7-2,4.5-2.8,8.9-5.3,14.3-5,.6,2.7-.7,1.7-2,2.5-3.3,2-7,4-11,3.5,3.9,5,9.6-.1,14-1l-4,3.5c1.1,1.6,2.8-1.1,4.3-1.7,2.5-1.1,5.1-2,7.6-2.9l-.9-1.9,18-7c.4.4-.8,7.5-1.2,8.5s-2.6-.1-1.8,2.5c7.5,4.5,16.9,3.3,25.2,5.3s2.5,1.6,4,2c4.4,1.3,9.7,1.3,12.8,5.2-4.9,3.3-12.8-.5-17,4.5,6.4-1.4,20.3,24,19,25-5.5,0-8.3-7.4-14-7,4.7,6.1,6.5,11.3,3.2,18.7s-6.4,11.1-10.2,9.8c4.7-6.9,4.7-16.3-4-19.5-2.2,2.2-1.3,20.4-2.2,24.3s-3.6,4-3.8,6.2c-.6,5.7,8.4,20.9,7.8,23.9s-9,4.1-9.7,6.3.2,4.5-.3,6.7-4.2,8.3-4.7,12.3,1.3,9.8-1.6,14.4c-7.3,11.6-24.3-1.2-34.3-1.8-4.1,9.2-9.5,17.7-16.1,25.4,6.3,6,13.2,17.5,13.7,26.2s-1.3,4.2-.6,6.5,5,6.3,6.4,8.7c5.5,10,7,19.9,14.5,29.5s3.8,2.5,4.5,3.5c1.4,2.3.5,6.9,2.5,9.5s8.1,3.4,9.1,5.1c1.5,2.4.1,4.8.6,7.1,2,9.5,8.4,11.8,16.9,14.1l.3,8.4c1.3,1.9,6.4,1.3,8.6,3.6s1.2,5.9,3.9,8.1c4.1,3.4,12.6.8,15.5,3.5s-1.7,6.2,9,10,33.2,11.1,47.1,13.9c16.9,3.4,20,3,34.9-4.8s19-13.4,25.4-12.5,5.4,2.1,8.3,2.7c17.8,3.5,29,10.7,47.3,14.7s13.2,11.8,18.9,24.1l54.3,3.7c4.6.8,2.1,12,0,12.7-5.1,0-9.9,1.5-14.9,2.1-26.5,3.1-57.5,4-84,2-4.6-.4-10.8-3-15-3s-9.1,2.4-16,2c-30.1-1.8-55.8.3-85.1,0-5.8,0-37.8-3.3-40.5-1.5s-.7,2.2-1.7,2.5c-11.1,2.9-38.7-8.2-49-13.8s-8.4-4.8-8.9-5.1c-2.1-1.6-1.8-6.6-3.4-7.6-2.3-1.5-8.8.8-12.5-3.5s-.9-9.3-3-11c-5.4-4.6-20.5-3.5-18.6-17-4.5.3-9.6-.3-13.1-3.4s-3.3-7.6-8.9-5.1c1.4,2.7,4.7,8.1,7,10s6.2,1.7,8.5,3.5,4.8,7.9,7.6,10.4c4,3.6,9.1,3.7,12.1,8.9s-.4,11.3-1.2,18.2l5.8,8.2-3.6,10.6c2.1,4,7.6,5.5,9.7,9.4s4,11.6,5.9,16.1c2.8,6.7,13.8,3.7,19.5,2,24.9-7.6,50.2-22.7,76.4-27.6,25.8,2.3,55.6-4.6,80.9-2.1s20.5,17,21.5,29.5-2.1,19.8-3,30,2.2,9.4,0,14.5c16.7-.4,42,2.8,42.1,24.5.1,25.5-46.6,45.8-68.5,43.4-8.9-1-18.9-6.6-28.3-6.8-5.6-.2-11.5,2.3-17.8,1.9s-11.1-2.1-14-4c-7-4.6-10.5-21.5-4.5-27.6s32.1-5.7,40.3-7.7c27.9-7.1,43.6-25.1,76.3-13.7,3.2,1.1,5.4,3.2,8.5,4-1.2-1.8-3.3-4.2-5.1-5.4-7-4.8-29.7-6.3-38.4-5.5-12.4,1-25.6,8.4-37.2,8.9-9,.4-21.3-3.5-29.7,2.2-2.6,1.8-3.6,5-6.1,6.9-4.6,3.3-11.7,4.3-14.2,10.8-5,12.9,2.4,29,15.7,32.7,10.6,3,20.6.2,31.4,1.6,10.2,1.4,21.1,6.7,31.1,6.9,18,.4,33.2-9.5,48.5-17.1l22.5,114.1c3.4,8.6,4.7,18.7,7.8,27.2s9.7,15.6,10.4,19.7-2.4,7.2-1.2,11,4.8,4.4,5.1,7.9-1.7,3.1-1.4,5.4,4.5,6.9,3.7,10l-6.8,8.2,4,12.5c5.1.7,7.2-8.6,12.7-6.3s7.7,5.3,8.2,5.8c4.4,3.9-.9,9.6,0,14.4,4.6.8,6.3-4.5,11-2l-.9,2.9c3.5.5,2.8,5.5,4.9,7.6,7.1,7.3,35.5,21.7,45.7,24.3,13.5,3.4,34.4.9,34.3,19.8,0,11.2-12.5,15.8-21.9,18.2-25,6.4-47.2,6.3-72.4,2s-16.3-4.8-20.3-4.8c-2.4,0-3.9,1.7-6,2s-5.9-.6-8.4.5l15,1c4.9,1.1,9.9,5.9,2.5,5.9s-15.7-1.3-23-1.5c-29.8-.7-60.2.1-90,0-33.5-.1-71.2,2.5-104.1,0-1.9-.1-3.6-.4-5.4-1.1l.3-4c1.7-2.4,30.4-.3,35.2-.3,6.9,0,13.9-.8,20.9-.7,13,.2,26.2,4.4,38.8,2.9,4.1-.5,7.3-2.5,11.1-2.9,21.5-2.4,47-.2,68.2,2,9.5,1,19,1.3,28.4-.9-.4-2-2-1.7-3.5-2-9.4-1.8-18.8-3.4-27.5-7.5s-5.8-16.1-5-26c.7-9.2.3-22.2,2-31s2.8-2.9,2.9-4.9-1.5-10.5-2.6-10.7c-19.9,4-9.2-7.5-11.5-14.2s-9.2-5-10.5-9.7,2.7-10.9,1.6-16.5c-.7-3.6-5.8-5-8-8-3.1-4.3-2.4-18.6-3.1-25s-.7-8.5-1.2-10.8c-1.3-6.6-14.1-19.1-16.3-26.7s-3.6-22.9-5.7-32.3-3-6-3.5-8.5c-.8-3.9.9-7.2-2.2-10.8s-4.2-2-4.9-4.2l2.4-18.3c-2.5-2.5-6.6-2.4-9.3-3.7-14.1-7.2-13.1-5.2-28.7-7.3-32.2-4.4-63.4-12.5-96.1-13.9s-10.6-.2-15.5.6l-2-1.2c-.7-2.7,3.3-11.3,4.5-14.4,2.1-5.4,17.5-43.7,19.7-44.8s3.4,0,5-.4c7-2.2,9.6-12.2,8.8-18.8l77,10c-2.4-5.9,10.1-16.6,1.3-18.9-3.1-.8-16.8,11-24.8,11-11.3,0-37-4.8-48.7-7.4-3.5-.8-7.5-2-10.6-3s-2.2-3.3-6.2-1.7c3.7,6.1,9.8,10.2,6.5,18s-7.5,4.5-11.1,6.9-18.8,41.4-21.2,47.8-6.2,17.3-5.2,18.3c11.4,1.1,23.1.9,34.5,2,13.6,1.3,31.5,3.5,44.7,7.3s7.6,2.6,10.3,4.7l-.5-4.5,2-.5c0,1,.1,1.9,1.2,2.3,4.1,1.7,24.3,4.8,25.3,6.6v1.1c-5.3,17.9-15.9,32.1-36.1,33s-5.1-1.5-6.8-1.1-1.1,2.2-2.3,3c-1.8,1.1-4.2.8-6,2.1s-3.9,7.5-5.2,8.1c-4.9,2.2-21.4.4-27.8,1s-4.2,6.3-6.7,11.3-2.6,1-2.9,3.1c-.4,3.5-.2,10.5,1.7,13.5s1.9.8,2.2,1.3-.5,1.9-.2,2.7c1.6,4.1,4.6,9.8,3.2,14.3s-16.9,8.8-19.6,2.9-2.7-10.7-2.8-12.1,1.2-2.7,1.2-4.4c0-14.3-14-6.3-22.7-7.7-.4,8.6-3,15.2-1.9,24.4s3.2,4.8,3.7,6.2-.5,4.5.7,6.4,4.5,2.5,4.5,3.5v58.5ZM200,94c-2-12.9-14.2-9.5-15,2.5s6,21.6,15.4,19.5c2.5-4.1-3.5-4.3-5.9-6-9.7-6.8-7-31.1,5.5-16ZM53,225c.2-6.5-.3-13.1,0-19.5.4-10.4,2.9-27.7.6-37.5s-28.6-18.6-37.3-7.6-2.6,18.7-2,19.5,1.8-.2,1.7.7c-1.5,1.1-1.9,2.2-2.1,4-1.1,10.4-.2,26.2,0,37.1,1.2,75.7,13.5,139.6,36.8,211.2.7,2.1,1,5.3,3.2,6.2-3.6-22.2-12-43.2-17.7-64.8-16.3-61.8-22.1-127.6-19.3-191.8.4-10-.8-23.8,11.6-25.3,10.9-1.4,20.3,6.7,21.4,17.4s1,13.9,1,18.9c0,10.4-2,21-1,31.6h3ZM120,163c-5.4-4.1-12.7-.6-19-2-.3,1.9.8,2.7,2.5,3,6.3,1.2,15.3-.5,21.9,0,9.7.6,20.4,2.2,29.6,5l-36,3c1.1,3.4,3.9.6,6.4,1,4.3.6,3.5,1,9.1,1,12.2,0,22.8,2.3,34.7,4.2l20.7,9.7c-1.4-2.1-3.6-4.4-5.5-6-5.3-4.3-28.2-15.8-34.7-17.3s-20.1-2.2-29.3-3.6l-.5,1.9ZM211,252h-15c0,3.3,24.2,6.2,20,10-8.1,2.8-16.2,1.2-24.4,2.1s-3.8.4-3.6,1.9c7.6,0,16,0,23.5,1s7.2.6,9.5,2.5c0,2.9-15.8,4.3-19,5s-3.2,0-3,1.5l6.5-1-.5,2c4.6-1.4,28.5,2.5,30,5.5.5,2-.8,1.4-1.9,2-8.3,4.2-15.7,5.3-24.6,6.5s-3.2.7-1.5,2l39-3-1.7,4-18.3,7.9c8-.1,16.1-2.7,24-1,.4,1.7-.4,2-1.7,2.8-4.1,2.4-11.7,2.6-14.3,8.2,7.7-2.3,14.9-5.3,23-6,1.2,5.8-3,6.5-6,10l12-1c1.6,1.5-5.5,6-6.5,7-4,3.8-8,7.8-11.5,12,7.5-3,13.3-9.7,20.3-13.2s11.8-4.6,12.7-3.8c-3.7,10.3-15.3,16.3-17,28,5.1-5.1,7.8-12.5,14.5-16l-.5,8.5c.3,1.1,1.4.6,2,0s9.1-15,8.9-15.9c-2.4-2.9-6.8-4.4-9.4-6.6-4.1-3.4-8.6-8-12.5-11.5-3.7-3.4-3.6-8.6-12-8.5,3.1-13.2-9.2-14.3-16-22.5s-4.3-7.7-6.8-11.2c-6.5-9.1-14.3-17.5-20.5-26.5-13.2-19.5-23.8-43.3-53.2-40.6s-10.4,4-18.1,9.9-6,.8-6.5,4.9c15.4-5.4,31.8-1.4,47,3,.2,1.7-2.4,1.1-3.5,1-7.1-.5-15.3-3-22.6-2.7s-2.3-1.3-1.9,1.2l2.5,2.5,1.5-2c-.4,3.9,3.5,1.2,5.5,1.5,6.5,1,18.1,4.4,23.6,7.9,1.3.8,2.4,0,1.9,2.6-7.2-3.4-18-4.4-26-4.6s-2.5-.5-3,1.6c12.1,1.4,25.7,3.7,36.1,10.4s2.4,0,1.9,2.6l-20.6-6.9-.4,1.9c-1.7.4-.4-1.7-1.7-2-2.1-.5-5.5,0-7.9-1l-8.4,2c9.4,1.3,20.1,3.2,29,6.5,5.4,2.1,20.8,9.6,25,13s2.4,2.1,2,4.5ZM131,198c-2-1.8-19.7,10.3-21,14l18.7-10.8,2.3-3.2ZM53,232l-3,.6c1.3,22.2,1.7,44.3,3,66.4h3s-3-67-3-67ZM83,413c-1.6-14.2-7.8-28.1-11.5-42-5.2-19.4-9.1-39-13.4-58.6-.8-2.6-3.5-3.5-6.1-3.4,2.8,4.1,4.2,10,5.5,15,3.7,14.2,5.7,28.9,10,43l15.5,46ZM296,348l8-17.5c-.2-.6-10.5-3.6-11.5-3.6-4.6.4-7.7,12.8-8.5,17l7.5-7c5,4.3,2.5,4.4,2.5,9.5s.2,1.6,2,1.5ZM448,338c.1-1.7.3-3.2-1.7-3.8-6.5-2.1-15.8-.9-22.6-4l-29.7,15.8c-.3,1.4,1.8,1.5,2.7,1.7,2.6.5,15.5,3.4,16.7,3.3,3.9-.4,2.9-4.7,5-7s9.7-4.3,10.6-7.9c1.6-.5.9,2,1,2h18ZM487.8,349.2c-4.2-.4-8.6-.8-12.7-1.8-9.1-2.2-11.2-6.8-21.1-3.8s-21.4,10.9-32.6,13.4c-16.8,3.7-51.8-5.1-69.6-9.3s-28.5-8.8-43.3-10.8l-1.3.3c-2.3,5.6-5.5,11-5.2,17.3l4.1,2.5c-.2-2.4.8-2.1,3-2v4s3.4-2,3.4-2c1.9,1.5,6.1,1.9,7.6,2.7s.8,2,1.1,2.2,2.3-.7,3.9-.4c27.5,5.6,48.4,9.2,76.5,10.6,3.9.2,11.6,2.2,14.9,2s.5-1.8,1.2-2c1.6-.4,15.8,2.9,21.5,2.4,13.3-1.2,22.8-10.4,35.9-10.4l-7-6c3.6-.5,6,3.6,9,4.5s5.9.2,9.3,1.7,5.2,4.6,7.7,6.8c-1.6-6.8-6.7-11.9-13-14.5s-16.1-2.6-14.5-8.5l22.5,6-1.1-4.8ZM532,372l-26.3-.8-2.7,2.8h19.5s9.5-2,9.5-2ZM543,374c-11,2.2-22.3,2.6-33.5,4-1.4.2-3.2.7-1.5,2,10.8-1.1,21.9-1.8,32.5-4s3,1.1,2.5-2ZM265,446c-.5-8.5-14.9-11-22-12.5-53.3-11.4-143.4-4.6-193.7,17.3-3.5,1.5-18.1,7.9-14.3,13.2,11.7-9,26.6-12.8,40.8-16.7,40.5-11.2,82.6-16.2,124.6-13.2,17.4,1.3,41.2,3.5,57.9,8.1s4.5,2.4,6.7,3.8ZM175,444c-28.3-1.9-55.7,2-83.2,8.3-11.7,2.7-23.8,6-35.1,9.9-3.8,1.3-14.4,7-16.7,7.3s-1.8-1.4-3-1.6c0,1,.3,4.4,2.3,3.9,2.9-.8,6.8-3.7,10.1-4.9,37.3-13.4,76.2-21.1,115-21l10.5-2ZM263,452c-28-8.4-57.9-8.1-87-8-.2,1.7,2.3.9,3.5,1,27.5,1,56.4,1.9,83,9l.5-2ZM401,453c-10.5-4-21.7-4.2-32,.5,4.6,1.8,8.9-1.1,13.5-1.5s10,.7,15.5,1.6,3.3,1.3,3-.5ZM404,458c-6.5-3.2-13.6-5.5-21-5l11.8,2.7,15.7,6.3c1-3-4.1-5.5-6-7l-.5,3ZM97,484v-16.5c2.9-2.2,11.1-4.2,14.5-3.5,7.4,1.4,4.2,20,6.3,24.8,2.5,5.9,10.4,13.4,14.3,18,3.5,4.3,4.5,12.7,11,13.2-1.4-3-1.3-7.4-2.3-10.2-3.1-8.6-17.8-21.5-17.8-30.3s1.5-4.7.9-6.8-6.8-6.9-4.8-11.7c8.9-.4,18.7-2.7,27.5-3.1,16.5-.8,37.1-.4,53.9.2,9.7.4,21.8,5.1,30.6-.7.4-2.4-1.1-1.2-2.5-1.4-29.8-4.9-83.9-3.2-113.7,2.3-4.1.7-21.4,4.1-23.5,6s-1.4,2.6-1.3,2.7h4c.9.9.7,13.3,1,15.5s.8,3.1,2,1.5ZM250,458l-16-2,13.1,3.4.5,1.6c-3.8,8.8-7.8,17.7-11.3,26.7s-7.2,18.2-10.1,26c-3.4,8.9-6.9,17.9-9.1,27.2l33-83ZM238,458c-2-.4-2.4.9-3.2,2.3-13.8,23.6-20.2,57.5-33.6,81.4-4.5,8-9.1,7.6-16.2,11.8s-2.5-.2-2,2.5c4.2-1.9,12-3.3,15.5-6,5.2-4,11.1-19.5,14-26,9.4-21.5,17.3-44,25.5-66ZM402,463c-8.8-2.5-17.4-2.5-26.5-1s-3.1,0-3.5,2l7.6-.9.8,1.8c5.9-2.4,12-.7,18.1-.9s3.7.7,3.5-1ZM74,560c.5-.5-7.3-8.9-8.2-10.3-8.8-14.4-6.6-35.2-5.8-51.1,0-1.2.7-5.5-1-5.5-1.1,18.2-5.3,46.2,7.5,61.1.5.6,6.9,6.6,7.5,5.9ZM201,527c-13.1.3-26.4.2-39.5,1-13.9.9-40.2,2.3-52.7,6.3-1.5.5-3.3,1-3.8,2.7,31.3-2.7,62.7-8.1,94.3-6.9l1.7-3ZM197,724c-32,8.9-64.4,16.5-96.2,26.1-5.1,1.5-12,3.6-17.8,5.4s-15.6,4.2-21,8.5l134.3-37,.7-3ZM265,790c1.2-1.2-3.3-6.9-4.2-8.3-9.9-14.8-31.8-40.5-45.3-51.7-1.1-.9-1.6-2.4-3.5-2-.6,2.1.6,2.7,1.5,4,8.9,14.1,35.7,43.3,48.1,55.9s1.4,2.5,3.4,2.1ZM373,763c-36.8-11.4-74.7-23.3-113-28l110.7,29.8.8.2,1.5-2Z"/>
    <path class="st0" d="M742,318h54.3s2.6,7.6,2.6,7.6c30.2-1.7,27.4,51.3-.7,51.6l-2.2,9.3-11,2.4c12.5,0,25,0,37.5,0,19.2,0,39.6-1,59,0,2.8.1,13.6,1,15.2,1.7,3.2,1.4,3.3,24.1.2,25.9s-10,1.5-11.5,1.6c-2.6,0-5.1-1.2-7-1.1-6.5.2-13.6,1.9-20.5,1l-2.9,412.6-65.1,3.4c1.2-5.4,7.2-4.1,10.5-1l1-2c2.1-.2,2.7-.1,2.5,2l1.6-2,10.4,1c-1.1-6.3-5.7-6.3-10.3-8.2-1.3-.6-2.2-2.2-3.5-2.6s-9.3-.8-9.8-.7c-2.4.2-6.7,2.9-10.5,1.5v-3s20.9.9,20.9.9l1.1-29.9c-51.1,1.3-102.5-1.7-153.6,0-2.8,0-5.2.9-7.9,1.1s-14.9-.9-16.1.9c-2.3,13,2.2,26.3-3.4,39.1,3.3.3,5-1.7,8.4-2.1,19.3-2.1,42.4,3.1,60.1,1.1,2.1-.2,4.3,0,6.5,0l.5,4c.8-5,3.2-3.5,7.1-4.9l.4,1.9,1.4-1.9c3,1.2,3.6.5,4.1,4,2.4-6.2,6.3-1.7,9-1.4s8.8-2.4,12-2.6c8-.7,16.6.9,24.2,1.6s15.1-4.5,17.3,1.5c1.9-3.5,18.2-1.4,15,3-2.2-.2-5.7-1.6-7.6-1.7-12.7-.7-28.1,1.4-40,1.7-3.2,0-9.3.4-12,.1s-1.4-2.1-1.9-2.1c-16.7,2.4-31.2,1.5-48.1,1.4-43.8-.1-88.8-2.5-133,.6l-1.9-2.1c-7.6,4.4-19.3.5-28.1.5-7.4,0-16.2,1.6-23.9,1.6-14.5,0-29-1.1-43.4-.9l-.6,1.9-.9-1.9c-1.2.7-2.6,1.1-4.1,1-17.5-.7-34.9.2-52.2-.4-2.4,0-8.1-3.3-8.7.2-.9-.5-2-.9-3.1-.9-2.7.1-7.7,1.7-7.9-1-8.5,1.2-17.5,2.5-26.1,2s-8.1-.3-5.5-3c-2-.3-2.6,1.6-4.5,2-10.9,2-30.2-.5-42-.7-2.5,0-15.9,2.2-9-4.4s34,0,40,0c4.6,0,8.9-1.1,13-1,6.4,0,13.2,1.8,19.9,1l1.1,2,3-3,47.9,1.1,1-3.1,1,3.1c15.4-1.8,30.6,0,46,0,32.1-.2,63.6-.9,95.9,1,5,.3,10.4-2.1,14.1,2,.8-3.2,3.6-1.5,6.1-2.9l.4,1.9,1.5-2,5.5,2c0-1.6.2-2.9,1.6-3.9,3.4-2.4,16.6-3.6,21.3-4.2.9-.6.2-4.4,3.9-4.7s5.9,1.7,6.1,2c.9,1-.9,4.1,1.1,3.8-1-7.9,6.7-18.1,6.9-24.6s-4.4-12.9-4.9-19.9c-2.1-29,1.7-59,2.1-88,.5-40.4-.6-81.3-1.1-121-.3-27.5.7-55.1-1-82.5h-3s0,23.5,0,23.5l-1,3.5-3.4-26.5-5.6-2.5-1,39.5-1.6,4.4c-1.1-2.2.6-3.8-2.5-4.5,2.4-1.3,2.7-1.1,3.1-3.9s-.7-22.3-1.1-24.1-1.2-2.4-3-2.5v-1c3.4.5,1.7-3.6,2-6-1.8-.1-3-.4-3.8,1.7-2.3,6.5-1.3,14.2-3.2,20.8v49.5c-1.4-.1-1.7-4.4-1.9-5.6-3.8-29.9,0-65-.2-95.8-1.9-4.9-.3-10.3-.9-15.1s-.7-3.1-2-1.5c0,50.8,0,101.7,0,152.5s0,76.3,0,113.9c0,21.8.7,43.9-1,65.5l-15-5.8v-281.8c0,0-.1-1.3-.1-1.3l-4.9-1.1,1,229h-16.5c-3.9,0-10.4-3.4-11.3-7.7l.8-30.3h-36l-10-23h46v-173.9c-26.5-7.2-55.5-10.1-81.3-19.4-2.1-.8-14.5-5.9-15.3-6.7-2.6-2.5-1-7.1-1.5-10.5s-1.9-4.5-1.9-7.1c0-6,2.5-11.7,1.9-18.9s-6.4-15.6-6.5-23.7c2.9-4.1,44.6,3.4,51.6,2.1l-5-1c.2-1.4,1.4-1.7,2.5-1.9,11.1-1.9,25.7,2,37.1-.9l5.9.9c34.2.8,68.1-.9,102-1.1,41.3-.2,82.4,2,123.5-1l-12-4.5v-66.5ZM751,322c-3.2-.2-2.9,2.2-3.1,4.4-1.1,12.8-1.1,36.3,0,49.1s.4,5.3,3,4.5v-58ZM798,367c17.4,2.9,18.5-34.9,0-31v31ZM721,397h-18l10-2c-5.5-.2-11.1.2-16.6,0-61.6-2.1-124,.1-186,0-2.3,0-5.5-1.3-6.8-1.1s-.6,1.5-1,1.7c-1.2.7-2.9-.3-2.7,1.3l60.5,1v-2s3.3.3,3.3.3l.7,1.7.5-2h1.4s8.4,2.6,8.4,2.6c4.7,1.4,6.7,6.7,3.2,10.3l11.5,1c2.1-3.1-1.9-3.5-3.5-5.5s-2-3.7-3-5.5l19.4-.9,3.6,10.9c3.9-2.1,7.1,1.5,11.5,1.1s2.2-3.1,8.9-2,6.6,4.2,9.5.4c0-3.8-17.8-4.3-21-4.5l2,2c-3,.7-10.9-.4-11.9-3.6-1.6-5.1,11-3.3,14.4-3.4,30.4-.8,63.8,2,94.1,0,1.7-.1,6.6-.4,7.5-2ZM891,396c-3.9.5-7.6-.9-11.5-1.1-43.3-2-87.6,1.2-131.1.1-4.2-.1-8.4-1.8-13-1.1s-1.3,2-2.1,2.1c-1.6.2-5.7-2.8-5.4.4l3.1,1.1v5.5c0,0,3.9-1,3.9-1v-4c23.5.2,47-.2,70.5,0,22.4.1,44.6.6,66.9,0s14.1,2.3,18.6-2ZM699,408c-.2-5.2-5.1-1.9-7.3-2.3s-1.9-1.6-3.2-1.7c-2.1-.2-12.3,1.1-12.5,4.5,7.5-2.4,15.2.3,23-.5ZM658.5,405c-7-1-16.2.8-23.5,0l4,1-1,2c4-1.5,21.1,3.4,23-.5s-1.9-2.4-2.5-2.5ZM789,406c-2.6,0-4.6-1-5.4,1.9l-5.6-.9.5,2c2.5-2.3,4,.7,6.1,1s5.9.4,7.9,0c3.7-.7,5.8-4.8,11.5-2,.4-2.8-.5-1.9-2.5-2s-5.7.1-8.5,0l1,2-7,1,2-3ZM827,434h-3c1.8,8.4,1,17.9,1,26.5,0,116.2,1.7,234.9,0,351,0,3.6-3.8,13,2.5,12.5,1.1,0,1.9-.4,2.1-1.6l-.6-39.5c2.6,1.5,2.6,6.7,3.1,9.5,1.6,9.8.8,20.5,1.9,30.5l4-.7v-48.3c1.9-2.6,2.9,5.6,2.9,6.5.5,5.9.5,41,2.1,42.4h4.9c.2-8.7-.3-17.6,0-26.4.9-31.4,2.2-64.5,1.1-96-.1-3.9-2.2-10.6-2.1-13.9s1.8,0,2.1-2c1.4-10,1-39.7,0-50.1s-2.6-.5-2.1-2.9l3.1-1.1c-.8-14.1.9-29,0-43-.2-2.4-1.7-3.9-1.9-5.1s1.7-3.2,1.9-5.8c.3-4-.5-10.5-.5-15.2,0-31,1.6-63,.4-93.9-.2-5.7-1.2-11.6-1.5-17.4s-.7-2.3-2.5-2.1c1.8,28.1,2.5,56.3,1,84.5s-.9,10.5-1,17,.7,3.7-1,3.5c-2.4-5.2-.9-8.7-1-13.4-.4-16.7-.7-33.3-1-50.1s-2.1-18.5-2.1-25,2.6-6.2,2-10.9-1.6-9.2-2.5-12.6-.9-4.8-2.5-5c-1.8,7.9,1.4,16.8,1,25l2-1.5-2.1,8.5-2.5-1-4.5-26c-3.5,15.2,1,29.7,2,44.5,1.3,19.8-.8,39.4-1.4,59s1.4,24.6.4,25.5h-3c-.6-23.8.5-47.7,0-71.5s-1.9-31.2-3-47c-.4-5.8.3-11.7,0-17.5ZM593,454.5c-1.8,6.4,1.3,21.1,0,28.5,2.4,0,5.3-2,7.5-1.9,3.3.1,5.5,5.1,10,.9-.2-9.6.3-21-.6-30.5s-2.3-5.5-2.8-7.2,1.1-5.8-3.1-6.3l1,29c-1.5,0-1.4-3.5-1.7-4.8-.8-3.9-1.7-17.9-3.3-19.7s-2.7-.8-4-1.4c-.5,7.6,3.5,14.6,2,22-1.4.3-1.4-2.1-1.5-3-.3-2.6.4-5.3-.5-8-.3-.3-2.9,2.1-3,2.5ZM617,485c.1-8.2-.1-16.4,0-24.5s1.2-7.3,1-12-1.1-12.7-4-10.5l-1.1,3.4c3.5,1,.2,3.6,2.1,6.6l-3-4-1.1,9.5,3.1,1.1c.7,8.5-.8,17.5,0,25.9.2,1.8.4,5.3,3,4.5ZM697,442h-34.5c-1.9,0-5.3-2.2-8.5,0-.2,1.5,2.6,1.8,3.6,1.9,3.6.4,7.3-.2,10.9.1,9.5.7,19,2.4,28.5,2v-4ZM755,442c-1.5-1.4-25.7-1.3-29.5-.9s-3,2.4-5.5.9c-.6,2.8,1,2,3,2v3s-6,1-6,1c4.6-.8,9.9,2,14.3,1s.6-1.8,2.6-2.5c5.2-1.9,13.8-1.6,19.6-2.5,1.4-.2,3.1-.5,1.5-2ZM813,444c-1.3-3.3-5.7-1.6-8.5-2-1.2-.1-2.7-1-3-1h-44c-4.3,0,3.4,4,1.5,6-14.6-.3-29.8,5.4-44.5,3s-22.3-1.7-33-2c-17.6-.4-35.3,0-52.9-.8l-1.7,2.8c13.5,1.1,27,2.7,40.5,4,5,.5,14.9-2,16.5,4l-58-4v6s41,6.5,41,6.5l-41-2.5v5c7-.4,12.8,1,19.6,0s2,4.2-.4,2.2l-.7,1.8c-5.3-3.1-12.3.6-18.5-2v5c.7.7,8.6-.5,10.5-.4,50.1,2.3,101.4,2,152,.4,8.5-.3,17.1.3,25.5,0,.4-.9-.9-3-1.5-3h-19.5c-.1-2.3-.3-1.8,1.5-2,5.9-.8,13.4,0,19.5-1v-14c-3.3-1-1.5,2.5-2,3-1.4,1.2-5.5-1.9-7.5-2.1-14.7-1.3-33.1.9-48,1.1-3.8,0-7.7,0-11.5,0,2.1-4.7,8.6-1.7,13.5-2,3.9-.2,8.3-1.6,12.1-1.9,7.6-.4,15.7-.2,23.4-.2l-1-2h16s-6-1-6-1l6-1c0-.6-1.3-2-1.5-2h-40c-1.1,0-1.9-2.8-1.5-4h47ZM568,464c-.6-2.1-3.1-2.2-4.8-2.7-8.2-2.3-18.6-3.2-27.2-4.3.4,2,2.1,1.6,3.5,2,7.7,2,17.6,3.4,24.1,4.9s3-.6,4.4,0ZM568,475c.1-1.6.3-2.3-1-3.5s-33.7-7.8-35-6.5v3s36,7,36,7ZM804,484l-179,1,1,54c13.1-.1,26.1-.3,39,1.5,27.3,3.9,55.1,10.4,82,16.1,7.5,1.6,15.6,1.5,22.5,5.5l.7,159.3c10.4,6.9,21.7,12.5,33.8,15.7v-253ZM717,557c-25.9-7.7-53.2-9.5-80-13-.5,2.9.7,1.6,2.3,2.1,24.8,7.6,48.6,11.9,74.7,12.5,1.5,0,2.5.5,3-1.6ZM766.9,565.1c-23.1-4.6-46.9-.9-70.3-1.1-5.8.9-9.5,3.4-8.6,9.9,2-1.1,1.6-2.8,4.3-4.2s5.8-1.6,8.2-1.8c10.7-.9,55.5-1.4,63.8,1.3s2.5,2,2.8,1.7v-5.9ZM752,583h-42c-.5,10,4.6,6.1,10.5,6,10.5-.2,21.1.2,31.5,0v-6ZM711,611c5.5-1,11.3,1.1,16.5,1.1,3.3,0,5.9-1,9-1.1s17.9,2,16.5-4.4c-.4-.9-1.3-1.5-2.2-1.9-3.4-1.5-36-1.2-38.8.7l-1,5.5ZM710.5,637h41.5v-4c-14.3-1.8-28.7-.5-43-2l1.5,6ZM713.5,657h38.5l1-5c-1.9-1.9-39.9-.7-41,1s.3,3.6,1.5,4ZM734.8,694.2c-11.1.6-17.1,15.3-4.3,19.8s19.4-20.7,4.3-19.8ZM768.9,739.9c-27.1,3.1-54.8,2.8-82.1,2.9-9-3.9-18.4-7.5-27.1-11.9s-21.8-14.2-30.9-18.1-2.3-1.1-3.7-.8l1,37c14.3.5,28.3-.9,42.5-1s9.3,0,13.9,0c34.9-.3,77,3.1,110.9,0,1.1-.1,9.7-1.3,8.6-2.9l-32-17-1.1,11.9ZM689,753l-60.5,1-1.5,2,60.5-1,1.5-2ZM816,755c-15.7-2.3-31.6-1.9-47.5-2.1-2.6,0-5.1,1.1-7.9,1.1-11.8,0-25.4-2.4-37.1-1.1-1.5.2-3.1.2-3.5,2h96ZM815,777h-37l.6-3.1c11.9-2.2,24.3,1.3,36.4,0v-13c-29.6.3-59-.7-88.5-1-7.6,0-15.3,0-22.9,0-25.4-.1-50.5-.5-75.9,0-3.1,1-1.1,10-1.6,12.9,1,1,25.1-.7,28.9-.7,6.3,0,11.1,1.6,16.5,1.6,15.3,0,29.8-1.7,45.1,0s3,.7,1.5,2l-92,1v4c6.9.9,13.9-.9,20.5-1,55.5-1.4,111.3,1.3,166.9-.1l1.7-2.8Z"/>
    <path class="st0" d="M668,292l-.6,77.1c1.6,2.3,25.9,1.6,30.1,1.9,8.7.6,12.9.8,11.5,11,1.1,1,8-.1,9.4,0s2.6,1.7,4.1,1.9c3.7.5,9.4-1.5,11.5,2-4.6-.3-9.8.5-14.4,0s-7.8-3.1-12.1-3.4c-28.2-1.9-61.5,1.2-91,.4s-33.8.5-50.6-2c1.7-2.9-2.1-8.4,1.7-9.8l51.3-3.2c-1-23.2.4-49.4-8.7-71-13.6.3-27.3,1.1-40.8,2-29.1,2.1-57.9,4.7-87.1,5.9s-15.5,2.1-22,2.1-3.2-.6-4.5-1.5l25.6-191.5,2.2-1.8L809,23.4c4.4-.5,13.4,6.1,13.1,11-3.7,34-8.5,68.1-12,102.1-5.1,49-7.4,98.5-16.1,146.9l-125.9,8.6ZM797,41l-305,79.5-24,172.5,304.9-25.1,24.1-226.9ZM791,246c-.3-12.9,4.2-26.4,2-39l-4,34.5c.3,2.1-1.2,5.3,2,4.5ZM673,373l-92,1.5c30.2.3,60.5,2.2,90.5.5l1.5-2Z"/>
    <path class="st0" d="M392,712c-10.2-1.2-19.9.4-30-1.5l2-158.5c5.1-.6,9.2.5,13.9,2.1,1.1,2.8-.8,6.1-.7,8.4s1.2,3,1.3,4.3-.9,3.6-.3,5.4c.8,2.8,8,4.9,8.4,7.6s-.7,3.2-.5,4.5,1.6,2.6,1.9,4.2c3.3,21.2,3.8,43,4.1,64.4h14.5c5.8,5.7,5.2,14.7,7.5,22l-22,1v36Z"/>
    <path class="st0" d="M634,840l-1.7,4.1h-53.8s-1-3.1-1-3.1l-.5,3-16.4-1.1-1,2.1-4.5-2v3s-16.5-2.1-16.5-2.1c-25.4,1.1-52,1.8-78,1.6-6,0-16.1.3-21.9-.5s-2.6-1.8-3.1-1.7c-.8,0-1.7,2.2-2.9,2.4s-4.9-1.1-7.1-1c-44.4.8-89.2-.9-133-.4-5.1,0-11.1,1.6-16.5.8l4.7-4.8c5.4.6,11.8-1.2,16.8-1.2,14.8-.1,30,1,44.9,1,86.8-.1,173.6-.9,260.1.5,7,.1,14.5,1,22,.6s5.6-2.5,9.4-1.1Z"/>
    <path class="st0" d="M75,822c-.2-1.5,2.6-1.8,3.6-1.9,43-4.5,89-1.2,133-2,6.8-.1,16.2-4,21.4,2.5l-3.2,2.7c-35.6.8-71.6.5-107.3-.2-15.8-.3-31.6-2.6-47.4-1Z"/>
    <path class="st0" d="M237,834c-46.8,2.5-93.9.2-140.5,0l-.6-2.5c.4-1.2,9.4-1.7,10.4-1.4,1.8.5.8,3.9,3.6,2.9l.5-3.1h55c0,.1,28.9-2,28.9-2,7.2,2.3,14.6-.1,21,0,4.2,0,15.3.3,18.8,1.3s3,2.7,2.7,4.8Z"/>
    <path class="st0" d="M249,844l-25.5,1.5-3-1.6-2,2.1h-38c-22-3.4-48.3.9-70.1-2-2.5-.3-3.4-1.1-5-3l-.5,3h-6.3c0,0-1.7-3.5-1.7-3.5,31.1,0,62.4,1.3,93.6.5s33.1-4.4,47.9-2,6.6,4.7,10.5,5Z"/>
    <path class="st0" d="M713.7,819.3c.6.3-.1,1.9.8,1.7l1.1-2h64.4c.3,1.6-.5,2.2-1.7,2.9-1.9,1.2-24.6,0-28.9,0-14.9.3-29.8.8-44.8,1.1-2.2-5.1-2.6-.2-3.3,0-4.1,1.1-6-2-7.8-2.1s0,1.9-1.9,2.1c-6,.8-15-.5-21.1-1.1l-38.8.9c-2.1-1.3-3-4-.2-5s12.4-.8,15.1-.8c9,.3,18,.7,26.9.8,11.1.1,22.7.5,33,0s6,.8,7.3,1.4Z"/>
    <path class="st0" d="M237,807l-1,3.5c-8.3,2.9-16.5.5-24.5.5-28,.1-56.1,1.3-84,1-12.3-.1-25.1-1.5-37.5-2.1l1.4-1.9,145.6-1.1Z"/>
    <path class="st0" d="M349,813c-20-3.5-42.6,1.3-62.5-1s-6.2-1.1-7.5-4c2.5,0,4.9-.9,7.5-1,13.3-.9,31.6-.6,45,0,5.4.3,16.8-.3,17.5,6Z"/>
    <path class="st0" d="M445,811c-6.2,2.1-11.7.6-17.5.9s-14.2,1.5-22,1.1c-3.5-.2-9.6-.6-13-1-2.9-.4-1.5-3,0-4.1,3.8-2.9,34.2.2,41.1-.9,2.1-2.3,13.8,1.7,11.4,4Z"/>
    <path class="st0" d="M468,853v3c-3.2,0-6.3,0-9.5,0s-5.2,2.8-6-1l-1.1,2c-3.6.6-7.6-.6-10.9-.5-10.4,0-21.1-.9-31.8-1.1-5.3,0-9.7.9-14.6,1.2s-1.9.5-3-1.1l2.5-3.5c13.8.7,28.2,2,41.9,2.1s12.1-.6,18.1-.7c4.8-.1,9.6-.2,14.5-.4Z"/>
    <path class="st0" d="M592,692c.3-20.2-.5-40.4,0-60.5,0-2,.9-3.9.9-5.9s-2.8-7,.6-9.6c1.8,1.2,1.4,2.6,1.5,4.4,1.4,18.3.1,39.7-1,58.1s1.8,10.9-2,13.5Z"/>
    <polygon class="st0" points="615 703 612 702.5 611.1 700.6 613.5 627 615 703"/>
    <path class="st0" d="M595,725l2.1,47.5c.2,3.7-3.3,5-4,.9.8-4.8-.8-9.5-1-14-.4-7.3-1.1-25.6,0-32s1.1-2.8,3-2.5Z"/>
    <path class="st0" d="M333,801l-53-.5c.3-2.6,3.4-3.3,5.5-3.5,4.8-.6,44.6-.8,46.5.5l1,3.5Z"/>
    <path class="st0" d="M693,811h-16.4s-1.1-2-1.1-2c-1,3.9-6.2,1.5-9.6,1.6-10.2.4-21.1,1.2-31.4.5-1.8-.1-3.2.3-4.4-1.5,1.2-1.9,2.7-1.4,4.4-1.5,6.6-.6,12.7,0,19,0,10,0,25.7-1.4,34.9,0,1.8.3,4,1.1,4.6,3Z"/>
    <path class="st0" d="M389,853v3c-18-.3-36-.2-54,0-.4-.9.9-3,1.5-3h52.5Z"/>
    <path class="st0" d="M244,798c-.7,1.9-4.8,2.8-6.5,3-4.2.5-17.7.7-20-1.9l-14.6.9,1.7-2.8c13.1.6,26.5-1.8,39.3.8Z"/>
    <path class="st0" d="M539,853v3s-35,1-35,1v-4c11.6-.4,23.4-.5,35,0Z"/>
    <path class="st0" d="M444,799c-13.4.9-26.5,2.9-40,2,1.2-6.6,8-2.9,11.5-3,8.1-.3,16.7-2,25-1,1.5.2,3.1.2,3.5,2Z"/>
    <path class="st0" d="M600.7,696.2c-.3-.5-2.7.4-1.7-2.2,7.7-.9,3.8,4.6,3.9,9.5.3,9.3,1.8,18.6,1.1,28s.3,3.2-1.5,4.4c-1.4,0-1.4-5.4-1.5-6.4-.3-5.2.9-31.5-.3-33.4Z"/>
    <path class="st0" d="M712,841v3s-27.5.9-27.5.9l-3.5-2.5c-.4-2.3,1-1.4,2.5-1.5,4.7-.3,9.4.3,14.1,0l2.4,2.1c.9-5.5,8-1.2,12-2Z"/>
    <path class="st0" d="M670,841c2.9,2.5-8.6,3.9-9.6,3.9-2.7,0-6.3-1.1-9-1.8l-.8,1.8c-2.7-1.8-6.3.6-7.1-2.9l-1.1,2h-7.4s1.7-4.1,1.7-4.1l33.3,1.1Z"/>
    <path class="st0" d="M601,549v50c-1.8-.4-1.9-2-2-3.5-1.6-14.6,1.4-31.8-1-46.5h3Z"/>
    <path class="st0" d="M276.5,779c-.4,0-4.8-1-4.5-2,5.1.7,10.6-.9,15.5-1,4.7,0,13.4,1.7,17,1.6s2.6-1.6,4.9-1.6c2.3,0,5.2,1.8,7.6,2l-7.5,1c-10.5-.8-22.7,1.1-33,0Z"/>
    <path class="st0" d="M219.5,787c.8.2,1.8,1.9,1.5,3-2.6.6-5.2-.8-7.5-.7-6.3,0-13.5.8-19.1.5s-5.6-.4-7.9-.7-1.6.4-1.5-2h34.5Z"/>
    <path class="st0" d="M152,788c-.6,2.2-2.7,1.9-4.4,2.1-13.3,1.1-28-1.1-41.6,0,0-.6,1.3-2,1.5-2h44.5Z"/>
    <path class="st0" d="M280.8,853.3c.5.3-.2,1.9.7,1.8l1.1-2,11.8.9.6,3.1-24-1c1.1-2.7,7.8-4,9.8-2.7Z"/>
    <path class="st0" d="M799,841v3s-27,0-27,0c.4-5.4,6.8-2.3,8.3-2.3,6.3,0,12.2-1.6,18.7-.7Z"/>
    <path class="st0" d="M433,790h-23.5s-3.5-3-3.5-3c8.6.6,16.9.9,25.4-.9l1.6,3.9Z"/>
    <path class="st0" d="M613,734c0,.1-2.7-1.1-2.7-1.3-2.7-3.9,1.4-19.4.8-24.7.6,0,2,1.3,2,1.5v24.5Z"/>
    <path class="st0" d="M149,856c0-2-.5-2,1.5-2,6.9,0,13.9.8,20.8.9s5.5-2.5,7.6.6l-8.5,1.4-21.5-.9Z"/>
    <path class="st0" d="M680,800c3-4.3,10.2-1,14.4-1s3.9-1,6-1c4.7,0,9.3,0,14,0,2,0,1.6,0,1.5,2h-36Z"/>
    <path class="st0" d="M302.8,854.3c.5.3-.2,1.9.7,1.8l1.1-2h10.9s2.5,3,2.5,3h-10.4s-1.1-2-1.1-2l-1.1,2h-9.4s0-3,0-3c1.9.3,5.4-.7,6.8.2Z"/>
    <path class="st0" d="M746,841v3c-2.9-.2-5.7,1.3-6.5-2-1.3,5-6.6.4-8,.4s-6.9,4.8-7.5-1.4c1.4-.8,2.6,0,3.5,0h18.5Z"/>
    <polygon class="st0" points="833 622 834 773 830.5 773 829 622.5 833 622"/>
    <path class="st0" d="M841,482l-1.5,88-1.5-15.5c-2.5-13.1.3-28,0-43l-2-27,1.6-2.3h3.4Z"/>
    <path class="st0" d="M841,736l-3.1-72.5,3.1-2.5c.5,6.8-.3,13.7,0,20.5.5,13.1,1,26,1.2,38.9s3.2,12.3-1.1,15.5Z"/>
    <path class="st0" d="M829,578c2.5-.2,1.7-.3,2,1.5,1.4,9.8.9,24,0,34s-.3,4.5-2,4.5v-40Z"/>
    <path class="st0" d="M842,626h-3c3-10.4.8-23,2-33.5s.2-3.1,2-3.5l-1,37Z"/>
    <path class="st0" d="M784,466c1.7,1.3-.1,1.8-1.5,2-4.9.6-37.3,3.1-39.5,1l1.5-2,39.5-1Z"/>
    <polygon class="st0" points="741 764 737.5 766 649 767 649.6 764 741 764"/>
    <path class="st0" d="M788,56l-22.9,204.6-259.1,24.4c3-51.4,14.1-102.2,18.1-153.5.2-2,3.6-5.1-1.1-7.5v2.9c-.1,0-26.6,7-26.6,7-2.1.9-1.7-2.9-1.2-3.7s11-4.2,12.8-4.7c7.5-2,14.8-3.9,22-6,77.5-21.8,159.6-38.4,238.2-57.8,6.7-1.6,13-4.6,19.8-5.7ZM732,86l-121.1,28.4-11.7,108.4c.9.8,1.9.9,3.1.9,4.9,0,13.9-1.1,19.2-1.7,14.1-1.6,28.1-5,42.1-6.9s37.2-2.4,55.2-7.3c6.6-40.3,10.3-81.1,13.1-121.9ZM578,125l-46,8v5c3.3-2.2,7.2-3.5,11-4.5,9.3-2.5,24.5-2.7,32.3-5.7,1.2-.5,2.5-1.5,2.8-2.7ZM536,156c1.6,1.7,4.2-.8,5.5-.9,3.1-.4,24.4-2.3,24.5-4.6-1.5-2.2-2.1-1-3.8-.8-6.9.8-17.5,3-24.7,4.4s-3.1.3-1.5,2ZM549,231l-5.6-.9c-.5,0-.3,1.7-1.1,1.9-5.2,1.1-13.8.6-19.4,1v3c8.1-1.4,16.4-2,24.5-3s1.6.4,1.5-2ZM569,257c-4.1.2-8.4-.3-12.5,0s-14.1,1.3-19.9,2.1-8.9.6-10.6,3.9c7.2-.8,14.3-2.2,21.5-3s12.4-.4,18-1,3.1-.2,3.5-2Z"/>
    <path class="st0" d="M521,130l-6,48-25,4v-4c4.3.2,22.7-3.2,24-6.5.3-2.1-.5-1.7-2.1-1-6.7,2.6-13.7,3.8-20.9,4.6-.2-2.2-.2-2.7,1.7-3.8,4-2.3,20.3-2.5,22.3-6.7.3-2.2-.6-1.6-2.1-1.1-2.5.8-20.1,6.4-20.9,5.6s0-3.2.5-4c1.2-1.9,15.5-3.7,19-5s6.1-2.1,4.1-4.9c-6,1.6-12.6,4.7-18.7,5.4s-2.9,1.1-3.8-.9,1.7-1.8,2.8-2.1c7.1-2.5,15-3.8,21.2-7.9.3-2.1-.3-1.7-2-1-6.6,3-13.6,5.3-21,5.5l1.1-3.9c7.1.9,14.6-5.2,21.9-6.1.3-1.7-2.4-1-3.5-1-4.6,0-11.5,2.1-15.8,4.1s0,2.8-2.7,2l2.2-5.8,19.8-6.2c-.2-2-5-1-6.3-.7-4.5.8-9,3.1-13.2,4.8-1,0-.6-3,0-4,1-1.7,20-5.5,23.5-7Z"/>
    <path class="st0" d="M502.8,259.8l-18.8,3.2v-4.5c5.9-2.6,14.4-.3,19-5l-20,1.5c-.7-2.2,2.6-3.1,4-3.5,4.6-1.3,10.4-.4,14-4l-17,.5c0-1.1-.2-2,.5-3,1.5-2.5,16.8-3.6,20.5-5,0-1.7.7-2.1-1.3-1.8-6.2,1.1-12.4,1.8-18.7,1.8,4.5-7,15.6-3.1,22-7l-4.2,26.8Z"/>
    <path class="st0" d="M507,232c-2-2.3-22,2.7-22,.5,0-2.3,1.9-2.1,3.4-2.6,3.8-1.1,15.1-1.8,17.6-3.4s1.2-1.3,1-2.5c-5.9.4-12.6,1.8-18.5,2s-4,.8-3.5-1.5l23-6-1.5-2.3-18.2,3.6c-.9,0-4.3-.4-3.3-2.2s20.5-4.5,24-6.5l-2,21Z"/>
    <path class="st0" d="M512,196l-1.6,5-22.3,3c-1-6,22.8-9,24-8Z"/>
    <path class="st0" d="M511,203l-1,7c-3.6-3.3-21.2,3.9-23,2l.6-3.1,23.4-5.9Z"/>
    <path class="st0" d="M503,262l-3.2,13.8-15.8,3.2c-.8-8.9,16-3.8,17-10.5s-.8-1.6-2.4-1.4c-3.4.5-11.1,1.6-13.7,3.4s1.5,3.1-1.9,2.4c.6-3.1,1.4-4.4-1-7,4-3.2,2.8-.4,4.5-.3s1.8-1.4,3.1-1.6c4.5-.7,9-1.3,13.4-2.1Z"/>
    <path class="st0" d="M514,181v3.9c-8.2,1.9-16.7,3.7-25,4.1-.4-2.2,1.4-2.8,3-3.5,6.2-2.7,15.4-2.2,22-4.5Z"/>
    <path class="st0" d="M513,193c-6.6-.2-13.6,2.1-20,2.5s-4.7-2.6-1.5-3.6l21-3.9.5,5Z"/>
    <path class="st0" d="M500,280c0,2,.6,5.2-1.7,5.9l-20.3,1.1c-.3-2.1-.1-1.6,1.3-2.2,6-2.7,14.3-3,20.7-4.8Z"/>
    <path class="st0" d="M756,55c0,1.4.1,2.7-.5,4-1.1,2.2-10.9,6.4-11.5,3.5-1-5,8.1-7.2,12-7.5Z"/>
    <path class="st0" d="M726,92c.3,29.1-5.8,57.7-9,86.5-.5,4.3.2,21.9-2.3,24.2l-111.8,15.2,11.4-101.1c1.4-1.9,40-7.2,45.6-8.4s8.9-3,12.9-3.9c17.7-3.9,35.8-6.9,53.1-12.6ZM688.8,165.2l-20.7-8.7c7.6-7.5,11.9-15.9,9.9-26.9-1.8-9.9-16.5-7.9-21.9-1-3.3,4.1-5.4,13.7-4.8,18.7s6.1,7.8,6.8,12.7c-4.8,2.9-18.5,9.5-21.7,13.3s-5.5,15.5-4.9,16.7c3.2,6.3,26.5,2.7,32.6,1.5s24.6-6.7,25.8-10.2c0-3.5,1.2-13.9-1.1-16.1Z"/>
  </g>
</svg>