<?xml version="1.0" encoding="UTF-8"?>
<svg id="Layer_1" xmlns="http://www.w3.org/2000/svg" version="1.1" viewBox="0 0 787 713">
  <!-- Generator: Adobe Illustrator 29.1.0, SVG Export Plug-In . SVG Version: 2.1.0 Build 142)  -->
  <defs>
    <style>
      .st0 {
      fill: currentColor;
      }
    </style>
  </defs>
  <path class="st0"
    d="M284,674c.5-2.4-.3-1.6-1.3-2.2-23.9-15.3-42.4-27.8-63.2-47.7s-11.7-11.1-11.3-13.3l19.5-26.5c2.9-.6,13,10.8,17.4,10.9.6-.6-1.2-4-1.6-4.9-1.9-3.8-13.8-20.3-13.3-22.4s8.4-8,10.6-8.5c3.5-.8,19.6,0,21.3-1.2.5-2.3-.3-1.6-1.3-2.2-4.9-3.2-15.4-6.6-19.2-10.7s3.8-8.3,6.5-12.5c13.9-20.8,19.4-51.4,29.8-74.2,5-5.5,10.5-10,15.2-15.8s4.8-5.8,4-6.5c-5.5,2.2-11.3,4.2-16.7,6.8s-10,6.7-11.9,6.9c-3.8.4-28.6-6.4-35.2-7.4s-9.3-1.9-14.1-1.2c-1.8,3.9-.8,23.9-3,25.5l-48.1.4c1.4,8.5-3.1,15.1-11.9,15l.9,24c-.6.6-6.6-1-7.7-1.7-1.7-1-1.8-2.8-3.5-3.6s-5.4-.4-6.4-1.7-.8-6,0-7.1c1.2-1.7,11-.4,10.5-4.3-.9-5.9-10.5-6.9-12.9-10.1s-2.1-7-2-10.5c-8.6,0-47.5,3.4-52-.5s.6-9.2,1-12.1c.8-6.9-.3-15.4,2-22,16.1-3.4,32.6-4,49-5.5l-7.6-1.9c-13.2-1.8-26.2-1.5-39.4-1.1,0-6.3,18.7-4.5,19-7.5-2.2-5.2-6.8-8.8-9-14-4.3-10.1-3.5-22.4-6.5-32.1s-10.1-16.2-8-19.5,4.7-3.7,5.6-4.4c4.4-3.4,21.8-12.9,22.9-17.1s-4.6-1.6-5.5-1.5c-3.4.4-14.3,4.7-15.4,1.3s2.6-16.4,1.9-21.3l9,7-4-42c.6-.6,15,.8,17.4,1.1,10.9,1.4,33.2,4.6,42.9,8.1s8.8,14.3,21,19c10.4,3.9,20.8,5.1,31.7,2.8.9.8-3.4,10.1,1.1,13.4s7.9.9,6.9,3l-10,8c7.5,10.7,15.9,13.2,27.8,17.2s66.1,17.4,68.1,20.4.9,13.7-3.2,11.8l-104.4-31.7c-1.8-.3-4-.5-5.8-.3-3.5.4-20,11.4-23.8,14.2-5.8,4.3-11.2,9.1-15.7,14.8,5.6-2.1,10.7-5.2,16.5-7s11.4-2.6,17-4l47.8,5.1.7,2.4c-6,2.5-14.4,4.7-19.7,8.3s-3.6,1.9-3.3,4.2c15.9-2.9,34.1-4.4,50.4-2.9s35.1,6.8,41.6,9.4,8.4,5.5,8.7,10.1.2,9.5.4,13.8c1,27.3-1.7,54-2,81.1s-3.1,12.4,1.9,18,10.2,4.1,9.9,6.8l-24.1,40c-2.5,6.9-4.6,14.3-4.8,21.7-2.5.6-10.5-2.6-12.1-.4s-1.7,15.8-1.6,17.8c.3,4,16.2,41.8,18.8,45,4.2,5,22.7,15,23.7,19.3,2.4,10.2-17.9,20.2-15.7,31.2,9.6,3.5,14.1-11.2,18.6-17.6,9.7-13.8,26.3-27.2,38.3-39.7,23.3-24.4,46.7-48.7,69.9-73.1,3.3-3.5,10.4-8.6,12.6-11.4s2.2-6.1,2.4-8.6c3.7-41.2,1.6-86.6,1-127.9s.8-70.1-1.9-103.1-5.8-5.5-9.5-9.5.4-9.6-8.5-12.5-25.4-2.3-35.4-3.6c-7.4-.9-31.7-4.2-35.1-10.9s1.4-4.7,4.9-6c34.4-12.6,116.9-14.5,151.8-3.7,2.6.8,12.8,4.1,12.8,7.2,0,6.6-21.7,11.3-26.9,12.2-7,1.3-31.5,2.6-35.5,5.2s-2.2,12.9-9.7,13.7l1,16.3c7.4,0,15.5-1,22,3.5,0,1.4-15,5-17.4,4.6s0-4.9-2.5-5.1c-1,5.5-2.4,26.3.5,30s14.7,3.8,17.8,5.2c5.7,2.6,2.9,5.7,1.8,11.4-4.6,2-16.9-7.1-18-1.1-1.6,8.6,5.6,6.3,12,8,1.6.4,9.9,3.2,10.1,4.1-.7,5-2.9,7.2-7.1,3.4l-3,5.5,5.1,2.1c-1.5,23.4,1.7,48.7,0,71.9-.6,8-2.3,4-5.1,5.9s-.5,9.7-1,12.6h9c.2,1.7,0,10.6-1.6,11.1l-15.9-2.8c-2,.4-1.8,8.1-1.4,8.7,1.1,1.3,19.9,2.5,18.9,6.6s-16.7,6-20,5.5c-.9,9.2-.9,18.3-1,27.5,0,1.6-1,3.3-1,5,0,11.1,8.3,6.5,15.7,10.3,5.4,2.8,8.9,9.9,12.8,14.2,27.3,30,52.5,62.2,80,92,4.6,5,23.6,20.6,23.5,26.5s-1,2.4-1.5,2.4h-15c-3,0-3.7-5.2-5-7-8.8-11.9-22-26.6-31.9-38.1s-19.2-18.3-27.5-28.5c-6.1-4.6-13.4,4.6-19.1,8s-12.3,6.3-18.2,9.8-9.9,8.9-16.2,8.9-22.1-10.2-28.8-13.3-18.7-7-27.7-11.4l-3.7.9c-4.2,4.7-8.9,10.9-13.2,15.2-13.9,13.8-33.5,30.3-45.6,45.4-1.9,2.4-4,4.6-3.5,8,9.7-1.1,13.1-9.6,20.7-13.8,19.5-1.2,40.5.2,59.8-1.2,6.8-.5,6.2-2.6,6.4-9-2-2-38.2-.6-44.5-1s-10.5-1.2-10.5-2.5l33.5-29.5c9.2,12.7,24.7,9,37.4,14.1,1.1,1.6-11,23.1-10.9,26.9l5.5-1c2.5-5.2,7.7-28,16.5-19.5s-4.6,17.1-3,21.5h53c-1.8-5.5-10.8-31.5-8.5-35,.9-1.3,2.5.4,3.3-.2s0-3.2,2.3-1.3c4.1,3.3,13.3,33.7,16.1,35.4,13,1.4,26.1,1.8,39.1.4,3.4.3,13.5,13.1,11.8,14.8-5.9.9-11.9-1.1-17.5-1.1-31.2.1-62.7.9-94,2.1s-3.7-.8-3.5,1c5.5.3,11.2,2.4,16.5,3,19.7,2.3,42.6,4.3,61.9,4.6,3.9,0,9-3.7,10.5,2.4-8.1,1.6-16.3.5-24.5,1-38.2,2.4-77.1,2-115,2-74.6,0-146-6.2-220-13-2.5-.2-19.3.3-19.5-2.5,4.2-4.2,0-25.1,2.9-27.1s12.2-.8,13.6.5c3,3,.8,20.7,8,23l.5-7.9c22.1-2.6,44.7.3,66.9-2.1l-4.6-10.9c-.8-4.8,11.7,1.7,13.9,3.1,3.2,2,7.6,7.8,8.2,7.8h17.5ZM447,627c1.5-18,1.7-36.4,2.1-54.5.3-4.3-4.4-4.5-7.1-2-10.5,14-22.1,27.3-34.9,39.1l40,17.5ZM461,571.5v55.5c9.4-1.5,17.3-8.5,25.3-13.2,3.6-2.1,8.1-3.5,11.4-5.5s1.3,0,1.4-1.8c.3-5.8-8.1-11.3-11.6-15.5-3.7-4.4-13-17.8-16.9-20.1s-8.8-1.9-9.6.6Z" />
  <path class="st0"
    d="M139,148c-6.4-5.2-17.8-7.8-25.9-9.6s-9.1.3-8-1.9c3.8-7.8,35.7-1.3,43,1.5-4.6-6.2-12.9-8.1-18.7-12.7-.7-.5-2.8-.8-1.3-2.3s10.1-1.9,11.4-1.9c18.9,0,28.4,16.7,37.4,30.6l7.2,14.3c-1.5-16-6.6-34.5-13.4-49-1.3-2.8-5.3-6.2-4.6-9.3s4.4-3.4,4.8-3.5c5-1.4,19.2,15.8,21.3,13.9-1.4-2.5-3-5.1-1.5-8,10.2-11.9,23.1-21.7,29.5-36.5-6.2-1.3-11.7,5.7-17.7,6.3s0-11.4.9-15.2c2.2-9.3,6.6-37.7,14.5-42.5,1.4-.9,8.2-3.6,9.9-4.1,2.7-.8,1.1,4,1.5,5.5,4.1,2.3,4.6-4.1,6.5-6.5,3.7-4.5,13.2,0,18.5,0,.2-2.9-3.5-3-5-5.5s-1.2-2-.9-3.5c6.4-.7,12.6,1.6,18.2,4.3s16.9,12.4,23.8,14.2,17.4,1.2,18.8,2.7,1.1,3.3.8,3.8c-1.6,3-8,.5-7.6,3.5.7,4.2,10.9,9.1,15,9.5v2c0,0-1.8-.3-2,.7-1.1,3.9-.4,15.6-1.1,20.8s-4.5,4.3-8.9,4.6c1.3-2.7,1.2-5.6,1-8.5s.5-3.5-1.5-2.5c-3.5,1.7-4.9,14.2-6.5,15.5-2.4,1.9-3.4-3.7-6-2.1-6.3,4-2.2,22.6-4.5,27.5s-7.6-.5-10.3,1.2-1.3,3.9-2.2,5.1c-1.4,1.9-3.7,3.4-5.2,6s-3.2,9.9-5.8,11.3c-4.1,2.1-17.8-8.9-23.3-8.3s-12.4,10.3-13.7,12.2c-2.8,4.2,6,14.8,7.1,19.5,1.9.1,2,.5,2-1.5s-2.4-15.5-.5-15.5l24.5,16.5c5.8,5.2,6.4,15.4,8,22.5,1.4,0,2-2.8,2.4-4,1-2.6,4.4-15.6,7-15,6.1,1.4,22,35.9,25,37s1.5-2.2,1.4-3.4c-1-8.7-3.9-17.2-5.9-25.6,3.2-.9,6.9,1.1,9.5,1.1s5.1-3.2,8.4-2c-.8,3.6,5.4,17.8,8.5,18s.8-2.2.8-2.7c-.1-2.7-1.3-6.5.7-8.7s17.7-7.8,21.4-9.6c15.7-7.8,43.4-24.3,56.1-35.9,6.4-5.8,9.6-12.1,18.2-16.8s20.9-5.5,29.3-14.7c16.4-18,30.5-42.9,47.1-61.9,1.6-1.9,7.5-6.3,7.8-6.7,1.2-2.2-1.6-8.2,2.9-9.6s8.5.9,6.9,5.9-6.8,3.4-7.5,4.1-.5,3.7-1.2,5.3c-2.1,4.5-7.1,11.4-10.1,15.9-13,19.7-27.9,38.3-41.4,57.7l4.4,8.3c-.5,2.9-6.6,4.3-7.4,5.6s1,4.4,0,7.1-6.1,5.7-7,8,0,4.7-1.4,6.6-5.3,1.8-5.9,2.6c-1.4,1.9,1.1,5.4-4.3,7.1-8.9,2.9-18.4-4.6-26.8,1.2-18.2,14.8-34.9,32.3-53.7,46.3s-16.3,9.4-16.3,11.6,3.1,4.8,2,7.5c-9.3,2-18.9,2.5-28.4,2s-10.9-3.9-17.8.2-5.2,5.4-12.7,3.8c.6-11.9-.6-8.2-8.5-8s-21.3.4-22.6-.5c-3-2.1,4.1-15.8-3.4-17.6l-21.1,60.1c-4.5-.6-7-4.3-11.3-5.6-7.4-2.2-18.7-2.2-27.1-3.9-18.9-3.9-42.9-13.2-60.2-21.8-18.6-9.3-27.2-19.5-49.3-21.7s-24.8-2.1-34,9-2.6,2-1,3c6.5-4.3,13.3-9.2,21.5-9-4.4,7.2-11.5,11.9-15,20,11.4-4.4,21.1-13.7,34.3-11.8,14.2,7.1,28.1,15.9,42.3,22.6,14.5,6.8,31.7,11.3,45.6,18.4,6.1,3.1,12.2,8.4,18.5,11.5s15.4,6.3,25.2,4.3c1.2-2.6-6.1-10.2-2.5-11s24.9,12.4,27.8,12,.6-1.7,1.4-2c34.4-13.1,78.8-23.1,115-32.8,3.9-1,14.5-2.1,16.3-2.9,3.4-1.4,3.9-8.1,10.3-4.3s-.4,13.1-6.4,10.4-3-3.5-3.5-3.5-3.5,3.4-5.5,4.5c-8.5,4.5-24.5,8.7-34.2,11.8-24.9,8-50.4,15.5-75.5,22.5-4,1.1-8.1,1.9-12.2,2.3l.8,7.4c-4.5,5.7-9.6.5-14.8-.4.5,10.8-7.2,5.5-12.4,6.9s-.2,3.1-2.8,4.3-16.3,3.7-17.2,3.7-16.9-5.8-17.6-6.4c-1.2-1.1-1.2-4.6-5.1-7.9-25-21.1-70.6-14.4-100.6-26.4s-11.9-6.2-17.8-9.2c-1.4,1.5,2.2,8.8-1,9s-28.3-25.5-33-29c-.7-1-.4-1.9,0-3,.9-2.8,7.1-11.4,9.1-14.9s2.7-10.1,8.8-13.2c13.6-7,33.3-2.4,47.7-1.8-8-6.5-18.9-10.1-29-12-3.1-3.3,11.3-5.9,12.5-6,9.1-.8,18.8.3,27.5,3,.3-2.2-3.8-4.3-5.3-5.2-4.3-2.5-11.4-4.1-14.7-6.3s4-4.2,5.6-4.4c14-2,28.3,5.5,42.4,4.9-9.7-7.2-22.2-12-34-15-2.4-2.6,9.5-5,10.5-5h34.5Z" />
  <path class="st0"
    d="M519,547l9.1-72.9,31,.9c2-16-17.9-7-27-10,1.5-9.1,15.9-31.9,24.7-33.8s15.4,1.6,21.7,1.8c25,.9,50.2-.6,75-1.1,6.9-.1,13.8-.1,20.6,1.1l-3.2,11.8-7.3,1.2h-110.8c-1.4.3-7.4,13.2-7.7,15.5s.3,1.1,1,1c10.4-.5,19.8,2.1,30.4,2.5,15.6.6,36.6.7,51.9-1.2,12.1-1.5,24-6.6,36.6-4.9l-1.1,5.9c-10.9,3.7-37-7.5-35.9,10.1,6.5-.3,13.1-.4,19.6-.9s3.2-1.7,4.7-1.8c2.2-.1,5.9,1.5,8.7.7-5.3,24-5,48.8-6,73.3-.8,3.4-27.7-.5-32.4.6s-1.8,7.3-1.7,9l35-1c-1.2,2.2-1.1,4.1-1,6.5.4,8.5,2.8,20.1,4.3,28.7,2.7,15.2,6.4,30,10.7,44.8-7.1.3-17.7-1.5-24.3,1.2s-.9,7.6,1.8,7.8l24.5-3c-.3,7.7,6.5,13,7,20.5l-29,1.5c-.2,3.2.2,6.8,1.8,9.7s1.8,1.3,2.7,1.3h89.5c-3.2-8.2-16.3-19.3-18.6-27-1-3.3.8-6.5,3.1-8.9,3.5-.3,16.8,17.4,20,20.9,5.9,6.4,12.3,12.4,18,19,0-3.1,8-2.6,9.1-1,1.5,8.6-5.9,3.8-9.9,4.4s-3.8,2-6.4,2.4c-17.3,2.6-41.9,3-59.7,3.3-18.8.3-37.8.4-56.4-1.2-1.3-14.5-6-30-7.1-44.4s.5-14-.1-20.9c-.9-10.3-4.9-21-6.9-31.1-.1-2.1,0-1.3,1.5-1.5s8.2.4,8.5,0c-.2-2.3,1-7-1.6-7.9s-10.1-.9-12.9-1.1c-5.8-.5-11.7,0-17.5-1-1.5,13.1,1.7,11.2,13,11l12,72c-14.8,0-29.7,0-44.5,0-3.9,0-8.1,1.9-12.5-.5s-7.2-10.8-9-13c-12.2-15-27.6-29.9-39-45-4.3-5.7-7.3-9.7-8-17-.8-9.3.2-19.9-1-29.5h25.5c5.2,0,3.3-5.3,3.5-9h-28ZM532.6,589.1c-2.6.8-2.4,8.1,0,8.8s20.2-1.9,16.9-7c-1.2-1.3-14.7-2.6-16.9-1.8Z" />
  <path class="st0"
    d="M362,374c5.5-.4,11-1.7,16.5-2,13.1-.7,33.1-1,46.1,0,10.7.9,6.7,4.4,7.5,12.5s2.4,6.7,9,6.5l1,99h-4c1.3-8.9,1-18,1-27h-8c0,9.1,1,18.4,4,27-8.8-.5-73.3,1.4-75.6-1.9-.5-8.4.5-17.1,1.4-25.5-.4-2.2-8.6-1.9-8.9-1.6s-1.1,9.2-1.1,10.5c0,5.5,2.5,11.8.7,17.6-.7.9-19.5,3.6-22.2,3.8-7.5.6-7.5.2-7.3-7.8l6-1.6c-.3-5.8-2.4-12.6-2.9-18-2.1-21.6,1.2-43.2-1.1-64.9s-.6-8.9-1.2-10.8-4.5-3-3.7-6,26.8-9.1,31.9-8.7v16.5c0,1.5,11,3.8,11,1v-18.5Z" />
  <path class="st0"
    d="M703.7,148.3c2.6,3.1.7,6.8-1.3,9.7-10,15.1-43.3,33.1-60.1,40.9s-15.6,7.6-23.4,8.1c-1,1,1.8,9.4,1.8,11.5s-1.8,4.9-1.5,6.9c.4,3.9,10.4,12.2,13.2,15.6,31.5,38.1,62.8,76.4,96,113,3,3.3,16,14.6,16.4,17.7s-2.8,7-5.9,4.8c-15.2-11.1-25.7-28.6-39.4-41.6-2.5-3.2-10.9,2.2-11.3,4.7s.8,3.2.8,4.8c-.2,18.2,1.1,38.1,0,56.1s-1.3,13.9-3,15c-2.9,1.9-6.6.8-7.1-3-3-24.2,1.9-55-.9-80.1-.8-6.8-6-6-4.1-12s4.1-5.9,2.6-10.6-6-8.4-7.6-10.4c-16.5-21.3-36.1-44.9-54.5-64.5s-3.4-7-7.2-7.8-5.7.1-6.2-.3c-1.5-1.2-1-13.8-7-11.4-25.3,10.1-54,18.7-81.6,20.5-8,.5-40.1,2.1-29.9-13.9,8.9-14.1,44.5-30.5,60.1-37.9,38.2-18,82.7-34.3,125-39,7.8-.9,30.9-3,36.1,3.2Z" />
  <path class="st0"
    d="M626.8,292.2c.6.4,2.2,8.3,2.1,9.4-.1,1.7-1.9,2.7-1.9,2.9,0,1.2,4.1,1.4,5.5,2.5s4.9,8.3,4.4,10.3-3.7,2.7-3.7,5,6.1,19.7,6.8,21,3.5,1.5,5,3.2,4.3,7.6,4,9.9-2.1,2.8-2,5c.1,3.2,7,12.1,5.6,15.6s-9.8,8.2-12.2,9.8c-13.5,9.4-28.3,15.5-44.1,19.9-20.2,5.7-41.7,8.4-62.2,3.3-1.3-1.8,5.7-6.6,7.1-7.4,7.7-4.6,17.9-7.4,25.6-12.4,1.1-.7,3.7-2,3.3-3.7-.9-4.2-16,2.3-19,2-1.5-1.1-1.8-20.3-5.6-21.5s-6,.7-6.2,1c-1.1,1.3.7,12.5,1.6,14.7,1.2,3.2,4.6,5,3.9,8.2-.4.7-13.4,7.7-14.3,7.8-5.2.5-3.9-8.5-4.6-11.1-1-4.2-9.8-30.2-11.9-31.7s-3.4,2.4-5.9-.5-2.4-6.9-1.5-9.6,15.9-12.5,19.1-12.9,1.1.3,1.6,1.4c2.3,5.7,1.1,11,9.9,9.6l-1.9-14.9c2.6-1.2,15.8-7.6,15.8-9.6s-6.8-.6-8.2-.2c-3.9,1-7.4,3.4-11.2,4.6l-5.4-6.4c.6-.8,1.1-2,1.8-2.7,5.6-6.2,46-18.1,56-20.3s37.3-6.3,42.8-2.3ZM593,307c-1.1-.9-15.5,2.8-17.4,4.1s-2,1.2-1.6,2.9h10.9c1.6,5,2.1,15.3,9.6,10.1s-4.8-13.4-1.4-17.1ZM614,374c-.5-4.1-5.1-24-8.6-24.8s-5,1.3-5.3,2.5,8,22.6,9,23.4,3.7-1.3,4.9-1ZM633,381c-13.3-.7-26,3.1-38.5,7s-22.7,7-25.9,9.1-2.6,3.4-3.6,5.9c21.1-1.7,40.7-10,60.2-17.3l7.8-4.7Z" />
  <path class="st0"
    d="M146,513c2.6,0,11.1.3,11.9,2.6v30.4c2.2.2,9.6.3,10.9,1.2s2.6,5.2,3.8,6.7c6.1,7.8,13.2,14.9,19.4,22.6s13.3,15.9,13,18.9-5.6,9.4-8,8.1-14-15.5-16-18.1c-3-3.9-6.6-8.7-9.1-12.9s-.7-6-3.8-1.9l8.4,50.3c1.7,2.3,3.7-1.6,4.7-2.3s14.2-9.4,14.7-8.7l1.9,12.9c-2.4.6-4.3,1.9-6.2,3.3s-11.3,9.7-12.7,10.4-3.8-1.5-4.5-2.6c-2.7-3.8-.9-9.3-7.6-10.6-2.3-12.7-2-27.1-5.3-39.6s-1.8-8.1-4.7-9.8l2,51h8c1.6,9.2,5.3,17.4,4,27-3.4,3.8-11.2-20.5-11-23-1.7-.4-.6,1.4-1.1,1.8s-1.6-.9-1.8-.7c-4.2,2.8-.7,21.5-2.1,23.9s-1.2-.8-2-.4c-2,1-2.9,4.5-6.4,3.3s-.8-6.7-1.8-7.8c-21.4-10.8-41.9-24.3-64.1-33-12.7,11.3-23.8,27.7-36.7,38.4-2.6,2.1-9.5,5.2-9.8,5.7s-.6,4.3-1.4,6.1c-2.1,4.2-5.7,7.5-7.7,11.7,3.8-.5,8.9-1.8,12.6-1.9,24.3-.7,49.3-.8,73.9-1.1,6,0,41.4-.6,43.5,1-3.7,4.7-1.1,7.2,0,12l-147.5-7c-2.2-.2-2.6-1.5-2.6-3.5l72.1-77c1.9-1.7,6.6,2.8,8,1.5s.4-3.1,1.5-5c8.3-12.8,27-31.4,38-43s1.2-5.1,4.5-1.5,2.9,5.2,2.7,6.9c-.8,8.3-32.3,38.8-38.7,47.1,0,.9,13.3,8.5,15.3,9.7,7.4,4.2,22.7,13.4,29.9,16.1s4.3,1,6.7.8l1-67c-2,0-5.1.7-5.9-1.6s-1.5-15.6-1.2-17.8l7-.6v-33Z" />
  <path class="st0"
    d="M677,641h16.5c1.9,0,1.9,8.5,5.5,3.5,13.1-28.2,14.6-62.2,14-93.1s-2.6-45.1-7.3-66.7c-1.5-6.6-6.4-26.6-9.9-31.1s-4.1,8.2-5.9,11.3c-1,.4-2.1-1-2.5-1h-15.5c2.2-9.5,6.5-8.1,14.8-8.2l4.1-8.3c-.2-2.3-10-1.9-12-.5-1.3-1.8,4.1-13.3,6-14.5s18.3-1.8,20.6-1.6c6.1.6,8.2,5.5,10.6,10.4,20.9,43,19.8,131.2,11.5,177.9-1.1,6.2-2.9,17.6-4.9,23.1s-9.3,16.2-12.2,17.8-13.9,4.3-17.1,4c-7.3-.6-14.1-16.9-16.5-23.1Z" />
  <path class="st0"
    d="M327,588c-1-16.4-4.4-32.6-7.9-48.6,3.1-4,10.8-16.4,15.4-16.5l34.4,5.2,11.2,69.3c-8.2,2.8-4.8,6.6-2.1,12.5-16,10.6-27.3,27.3-40.4,41.1-2.2,1.6-5,.9-7.6.9,0-4.1-.3-27.3,2.1-28.9s7.7,1.3,10.4.9,1.8.5,1.5-1.5-3.7-6.9-4.7-7.6c-2.6-1.6-9.3-1-9.8-1.9l-1.4-13.4c1.1-3.5,22.1-8.7,23.9-10.7s.4-2.1-.5-2c-.9.1-1.7,1-2,1h-22.5Z" />
  <path class="st0"
    d="M748,214c.3,1.5-.2,2.3-1,3.5-5.1,7.9-47.4,24.7-58.1,28.9s-11.4,2.3-11.9,5.2,5.4,5.8,5.8,7c.9,2.6-1.8,5.5-1.9,7.9s4.8,6.3,7,8.9c7.4,9,13.8,18.9,20.6,28.4s9.9,9.2,3.8,11-14.4-13.2-18-17.8-8.4-9.7-12.2-14.8-4.4-8.2-5.7-9.4-3,0-4.5-.3c-6.5-1.7-6.1-6.6-9.3-10.3s-7.3-5.2-9.7-7.8-11.7-13.2-11.9-14.1c-.3-1.5.8-1.7,1.7-2.2,11.2-7.3,32.2-12.2,45.4-15.6,18.9-4.8,40.4-11,59.8-8.7Z" />
  <path class="st0"
    d="M511,373c-1.1,3.5,1.3,8.7,1,11.5s-1.8,2.4-1.6,3.6,9,19,10.4,21.6,7,8.2,6.3,11.7c-11.4,3.3-19,13.9-23.9,24.2s-7.6,24.3-11.6,23.4-1.5-20.8-1.5-24.4c.2-15.3-1.9-33.9,0-49.1s2.8-5.5,3-8.1-3.2-14.4-.5-14.4h18.5Z" />
  <path class="st0"
    d="M439.9,500.1c-.9,3.3,2.8,13.6.2,15.5s-18.9,2.3-21.5,2.5c-20.8,1-53.3-1.1-73.9-4.1s-17.9-3.3-21.2-4.8-3.9-4.1-1.7-5.1,14.2-3.4,17.9-3.9c21.5-2.9,58.8-3.1,80.9-2.2,2.7.1,18.7,1.4,19.4,2.1Z" />
  <path class="st0"
    d="M678.5,555l13.5,79c-5.9,0-11.7-.3-17.4,1.1-8.6-25.4-10.9-52-13.6-78.6.5-3.6,2.1-1.5,2.5-1.5h15Z" />
  <path class="st0"
    d="M438.9,364.9c-.5.4-10.6,1.1-12.4,1.2-22.7,1.2-47.9-3.4-70.1-1.1-4.6.5-10.4,2.9-15.3,3.7s-18.7,3.4-19.6,3.2-2.6-6.1-2.5-7.5c0-2.8,11.8-5.4,14.7-6.1,7.4-1.9,15.3-3.2,22.8-4.2,27.3-3.4,55.1-2.6,82.4.3,1.9,1.2.4,10-.2,10.5Z" />
  <path class="st0" d="M687,471l-7.5,76h-17.5c.8-24.9,2.3-49.7,6.2-74.3l1.3-1.7h17.5Z" />
  <path class="st0"
    d="M495,548c-2.3-2.3,3.9-49.5,5.3-56.2.8-3.9,3.2-15.2,4.9-18.1s.7-1.6,2.2-1.6c4,0,10.3,2,14.6,2-5.7,24.2-8.3,49.1-9,74h-18Z" />
  <path class="st0"
    d="M437,333c-4.4-.2-11.3,1.8-13.9,5.6s-.3,5.4-4.6,5.4c-7.8,0-6.3-3.4-9.6-6.5-7.3-6.9-52.2-5.2-63.9-11,8.8-4.2,20.7-5.6,30.5-6.5,15.5-1.4,38.7-2.4,54-1s7.7,3.9,7.5,14Z" />
  <path class="st0"
    d="M629,265c-6.3,1.2-12.5,3.4-18.8,4.7-10.6,2.2-24.2,4.8-34.8,6.2s-24.9,3.5-16.3-5.3c6.1-6.2,32.5-17.1,41.7-20.3s13-5.6,16.7-2.2,10.4,12.7,11.1,13.9.7,1.8.5,3Z" />
  <path class="st0"
    d="M438,238c4.4,0-.7,3.7,4.7,4.8s2.5.1,3-2.5c1.6-8.9-.9-18.4-.8-26.8s1.1-4.6,1.1-7c0-11.7,0-23.3-.1-35,.2-1,7.1-1.7,7.9-.4l2.2,80.4v1.5s-18-1-18-1v-14Z" />
  <path class="st0"
    d="M597,687c-.1-.1-.3-2.3-1.1-3.3-2.1-2.9-5-5.5-6.9-8.6l46.4-1.1c0,2.8,7,13.1,1.1,13.1s-37.9,1.1-39.5,0Z" />
  <path class="st0"
    d="M542,432l-7.4,13.1c-7.9,2-16.8.8-19.5,10.5s4.3,2.1,5.6,2.1c7.3.2,4.6-2.4,6.3,7.4-6.4,0-12.8-.5-19,1,2.5-8,13.9-32.4,22-34.6s8.8,1.6,12,.6Z" />
  <path class="st0"
    d="M420.9,528.1c1.4,1.2,1.7,29.7.9,33.2s-9.1,10.1-9.8,3.3-.7-9.2-.9-13.1c-.4-7.8.3-15.7,0-23.5h9.9Z" />
  <path class="st0"
    d="M542.9,661.9c-.7,1.1-6.5,1.3-8.2.9-6.8-1.6-33.9-34.2-30.7-37.8,2.8.8,5.7,3.6,8,5.5,10.7,8.7,20.4,19.2,30.8,28.2.3.8.5,2.6.1,3.2Z" />
  <path class="st0"
    d="M511.5,555c2.4.7.5,4.6.5,6.5-.2,7.2.2,14.4,0,21.5-4.9-2.6-6.5-7.9-9.6-11.9s-9.2-7.1-8.3-12.3,1.8-3.7,2.3-3.7c3.5,0,12.5-.7,15,0Z" />
  <path class="st0"
    d="M504,336c1-2.2-2.1-5.3-1.9-6.4.6-3.5,19.1-13.4,20.9-12.2s4.2,6.3,3.5,7.6c-2.8,1.3-21.7,11.9-22.6,11Z" />
  <path class="st0"
    d="M654.8,216.2c1.1.6,7.6,8.4,6.2,9.8l-14.9,2.9c-1.1-.8-1.7-9.5-.7-11s8-2.5,9.3-1.7Z" />
  <path class="st0" d="M583.7,148.3c6.6,5.5,3.1,9.2-4.3,9.7s-7-4.9-4.9-8,7.4-3.2,9.2-1.7Z" />
  <path class="st0" d="M419,311l-8-1v-10c8.9-1.2,8.4,3.8,8,11Z" />
</svg>