<?xml version="1.0" encoding="UTF-8"?>
<svg id="Layer_1" xmlns="http://www.w3.org/2000/svg" version="1.1" viewBox="0 0 871 850">
  <!-- Generator: Adobe Illustrator 29.1.0, SVG Export Plug-In . SVG Version: 2.1.0 Build 142)  -->
  <defs>
    <style>
      .st0 {
        fill: currentColor;
      }
    </style>
  </defs>
  <path class="st0" d="M690,179.5c-.5-5-2.9-13.3-7-16.5-.3,6.4,1.7,13.2,2,19.5s0,23.1-1.7,29.4-3.3,6.8-5.3,9.7c-4.4,6.1-16.9,15.3-17,22.1s2.1,6.1.5,9.4-11.4,9.7-14.5,13.5c-8.6,10.5-7,21.3-12.1,32.9s-3.9,24.4-2.9,36.1c3.5,38.1,14.3,51.7,41,77,44,41.7,95.4,75.5,139,116,47.7,44.2,40.2,96.6,37.9,156-1.7,44.5-1.6,90.6-5.3,134.9-.4,4.2-.9,17.1-5.5,18.3-2.4.6-3.7-.4-5.5-.3-20.4,1.2-42.8.8-64,.8-140.8,0-282.1.3-423.1.2-6.5,0-16,4-20.5-2.7s-3.1-19.1-4.1-24.9c-5.2-31-10.3-62.1-14.7-93.3-3.3-23.4-3.5-60.3-15.7-80.3s-23.9-36.3-35-52c-10.5-14.9-13.5-12.8-28.1-20.9-26.1-14.5-46.8-31.3-71.4-46.6-6.7-4.2-14.7-7.1-21.2-11.8s-7.8-7.6-11.3-9.7c-10.2-6-26.2,3-37-7.5-4.8-4.7-8.6-17.1-11.8-19.7-5.3-4.2-13.3-1.4-20-11s-2.1-19.8-5.1-26.9-18-15.2-21.5-18.5c-11.4-10.7-20-20.5-21-37s5.8-22.2,14.6-37.5c5.7-9.9,8.5-20.6,13-31,24.9-57.8,65-103,102.9-152.1,15.4-19.9,30.4-43.8,46.6-62.4s12.8-12.2,21.6-16.4c28.3-13.5,69.9-27.7,100.3-34.7,13.4-3.1,15.6,1.1,27,4.1,20.7,5.4,50,11.7,68.2,22.8s27,20.9,29.2,20.5l5.5-8.2c-30.3-28.3-8.2-64.9,28.8-69.5,26.2-3.3,38.1,10.4,59.1,13.6,10.7,1.7,22.8-1.3,32.7-.8s16.1,5.2,23.3,6.7c12.2,2.6,24.2,1,36.5,5.5,16.3,6,20.3,19.1,33.6,27.4,10.6,6.7,36.8,10.1,41.1,22.9s-.9.9-1.7.7c-7.5-1.5-15.9-2.5-23.3.2,0,1.6,7.9,9.1,9.4,11.6,5,7.9,5.4,17.4,9.1,25.9s7.2,12.1,9.7,18.3c6.3,15.8,9,40.3-5.2,52.7-.4-5.3.5-11.3,0-16.5ZM503,32c-16.5-5.2-39.3-10.3-54,1.5-7.6,6.1-15.6,20.8-7,28.5,4.2-27.3,37.7-34.1,60.5-28l.5-2ZM562,60h-16.5c-2.6,0-17.9-6.2-21.2-7.8-5.8-2.8-11.4-9.5-18.3-7.7,11.2,16.8,34.1,21.9,53,17,1.1-.3,3.2,0,3-1.5ZM303,53c9.5,4.9,20.1,6.7,30,10.5,11.7,4.6,27.3,13.2,37.9,20.1s22.3,19.2,30.6,19.5,1.5-5-1.6-7.5c-17.5-13.8-39.7-29.2-60.2-37.8-8.5-3.6-22-8.8-30.9-7.6s-5.5,1.3-5.7,2.7ZM519.5,82c5.7.7,12.6-.5,18.5,0l-18.7-4.8c-16.8-11.1-37.1-31.4-57.6-15s-4.3,3.4-3.7,7.8c22-13.5,42,9.5,61.5,12ZM373,98c1.2-1.6-3.6-4.1-4.7-4.8-21.6-13.5-39.2-19.7-62.6-28.4-11.3-4.3-14.3-9.8-27-5.5-19.9,6.7-45.6,16.7-64.7,25.3-26.3,11.8-45.9,48.3-63.6,71.4-31.2,40.7-70.6,84.8-93.6,130.4-8.9,17.6-13.8,37.6-23.3,54.7s-13.7,18.4-14.5,25.6-.6,5.5,3,5,13.2-1.8,16.2-2.9c5.2-1.8,6.4-14.7,8.3-19.7,10.1-28,29.4-55,47-79,27.8-37.8,58.6-73.7,86.8-111.2s11.7-18.5,17.6-25.4,11.3-2.2,18.8-1.8,2.8.9,4.2-1.2c-3.8-1.3-21.8-15.6-18-19.5,6.3-.7,12.2,1.4,18.5,1,11.6-.8,22.4-7.7,31-15,8.4-7.1,16.8-21,28-22,20.3-1.7,55.5,15.4,75.5,21.4,5.4,1.6,11.3,3.7,17,1.5ZM438,105c-20.9-10.4-37.3-30.4-60-37,6.4,7.4,15.7,12,23.5,18s21.8,20.9,31,21.1,5.4-.3,5.5-2.1ZM498.4,136.6c-11.8-12.2-7.5-25.2-9.4-40.1s-3.9-10.7-13.2-13.8c-15.1-5-27.4-5.9-34.5,10.8,3,5,12.9,5.9,12.7,12.9s-5.4,9.3-8.8,13.1c18.3,25.7,41.1,48.4,55.8,76.5,2,1.9,2.9-3.9,2.9-4.6,0-8.6-2.7-23.2-7.1-30.7-5.4-9.4-19.4-17.2-13.3-30.7,7.7,7.3,15.6,17.9,27.5,17,1.1-.8-11.7-9.4-12.6-10.3ZM563,122c-16.1,2.9-32.8-.6-45.5-11-4.9-4-9.6-12.2-14-15s-2-1.2-3.5-.9c4.2,22.8,22.3,33.1,44.5,32,4-.2,12.7-1.4,16.5-2.6s2.3-.2,2-2.5ZM418,117c-9.2-1-15.9,1.2-24.7-3.8s-5.6-5.6-8.9-5.9-12.1,2.5-19.6,1.5-19.4-8.1-23.2-7.8c-4.5.5-6.1,4.9-1.2,8.2,11,7.3,45,6.2,46.7,19.4s-21,17.5-31.4,16.3c-9.5-1.1-16.9-7.3-25.4-9.6-18.9-5-39.6,12-60.7,10.7-10.4-.7-12.3-5.2-22,3-11,9.5-32.9,55.1-39.7,70.3-11.9,26.4-20.1,53.1-29.8,80.2s-9.5,21.5-7.9,23.4c13.1,2.1,26,11.2,28,25,10.4-.8,21.2,2.3,28.9,9.6s5.9,9.5,11.4,12.6c18.2,10.3,39.3-.1,59.8,3.2,8,1.3,20.4,7.7,27.2,7.7s20.1-5.3,29-6c15.4-1.2,36.6-.6,51.5,3.5,10.2,2.8,20.1,9.7,30.5,10.5s31.2-2.3,33.1-5c1.3-1.8-3.7-10.7-4.6-13.5-2.8-8.9-5.7-34-9.9-39.1-12.9-15.3-78.9.3-72.6-40.5.8-5.3,5.3-11.6,5.5-15.5.2-5.7-6-9.3-3.4-16.4s3.5-3.6,3.5-5.6-3.7-4.4-4.5-6.5c-2.6-7.4,3.9-11,3.3-16.2-1.2-9.3-21.5-11.4-19.8-25.1s7.3-8.4,10.5-11.6c10.7-10.6,21.3-21.4,31.7-32.3,2.6-6.1-3.1-13.5-2.2-20.2s13-22.2,11-24.6ZM518.3,244.7c8.5,7,30.3-10.3,36.2-16.7,12.5-13.5,19.5-28.7,17.5-47.5s-13.6-18.6-25-15c-17.3,5.5-16.9,15.9-25.2,27.8-4.6,6.6-10.5,6.5-17.8,7.7-1.4,1.6,6.4,12.2,7.5,15,2.6,7,2.1,24.8,6.8,28.7ZM404,258c-2.8,0-9.7,1.1-10,4.5.4,4.2,3.1,7.7,3.1,12,0,8.7-10.9,24,2,29.9s40.8-1.2,52.1-3.7,24.9-4.5,23.6-13.9c-2-14.2-27.7-50.4-40.4-56.6s-8.1-2.5-13.4-1.7-25.7,8.2-27.7,11.7c-3.9,6.6,12.6,11.2,10.8,17.8ZM101,424c8-19.1,20.9-35.6,36-49.5s16.1-13.8,24.3-18.7,14.5-6.7,15.2-7.8c1.8-2.8-3.6-4.3-5.3-4.8-31.3-8.7-57.8,3-79.3,25.2-14.2,14.7-26.4,33.1-28,54l2,.5c9.5-18.9,24.6-37,40.5-51s17.9-14.8,28.5-17c-2.2,9.1-10.2,14.9-15.4,22.1-8,11-14.4,23.7-18.3,36.7l-.3,10.3ZM552,360c-1.6-1.9-4.5,5-4.8,5.6-8.9,17.6-14.6,37-23.3,54.7-2.7,5.5-12,24.1-16.5,26.5s-5.6,2.1-5-1.9,2.1-7.7,2.5-11.6c1.6-14.8-.5-45.7-5.1-59.6-3.5-10.4-15.5-23.3-26.7-24.8-1.1,1.1,2.2,16.1,2.9,18.6,3.1,11.7,6.7,14.3,6.1,27.9s-3.9,47.5-14.1,59.9c-2.6,3.1-7.1,4.4-8.6,7.4-4.5,8.5-7,30-7.2,39.8-.7,26.1-.4,52.7-1,79.1-.2,8.9-2.1,19-2.1,28,0,1.4.4,10,1.6,10.5,15.8-28.6,33.5-57,58-79,21.3-19.1,51.8-37.2,78.5-47.5,10.2-3.9,31.4-7.3,36-19s-.6-1.3-1.3-1.6c-6-2.3-10.6,0-16.1.2-24.3.6-49.5.6-72.5,9.5s-25,13.6-26,12.5c-.1-1.7,0-3.4.5-5,2.7-8.3,14.4-24.3,19.1-33.9,14.5-29.9,23.5-62.7,25.5-96ZM214,365c-38.7-5.6-79.1,25.3-89,62,2.2.5,2.2-1.3,3.2-2.3,23.3-23.7,34.8-36.5,66.4-50.6,5-2.2,13.9-4.3,17.6-6.4s2-1.1,1.7-2.8ZM299,388c-4.2-.2-8.5-2.4-12.6-2.9-24.8-2.8-63,17.6-82.7,32.1s-16.4,11.2-13.7,14.8c11.6-2.6,20.9-10.2,31.3-15.2,18.2-8.8,39.2-18,58.7-23.3,5.7-1.6,12.2-1.9,17.5-3.5s1.7.6,1.5-2ZM364,390l-.4-3c-2.3-3.2-20.6,1.1-24.8,2.3-27.1,8-54.6,32.1-68.6,56.4-2.5,4.3-13.3,26.8-10.2,30.3,1.7.5,2-.7,3-1.5,5.6-4.2,9.3-12.8,13.6-18.4,22.7-29.5,50.1-56.6,87.4-66.1ZM411,392c-7.9-3.1-16.9-3.9-25.4-2.9-22,2.6-44.3,33.7-54.1,51.9-16.6,30.9-26.5,67-28.5,102,9.5-10,11-26.3,15.5-39,12.8-36.1,39.2-87.6,75.1-104.9l17.4-7.1ZM456,402c-44-6.9-72.2,26.8-91.2,61.3-30.6,55.6-43.6,152.6-35.8,215.2s2.9,14.3,4,21.5c1.5.2,1.8-2.6,1.9-3.6,3.8-35.5,1.8-70.9,7.4-106.6,9.1-58.1,40.3-147.5,94.7-177.3,5.1-2.8,13.2-5.1,17.3-7.7s2.1-.9,1.7-2.8ZM659,535c-3.1,0-5.8,2.5-8.3,4.2-45.5,30.6-86,74.2-101.7,127.8,2.9.5,3.8-1.3,5.4-3.1,10.7-11.8,21.1-32.4,30.8-46.2,21.6-30.7,46.5-57.1,73.8-82.7ZM761,540c-37.8,2.2-77.8,23.6-104.5,50-30.1,29.7-52.7,84.1-52.6,126.5,0,3.2.5,5.4,3.6,6.5,6.4-12.9,9.5-27.7,14.7-41.2,20.9-54.2,59.3-102.8,111.7-129.3l27-12.4ZM774,561c-16.8,2.6-33.1,12.7-46.5,23-55.2,42.9-75.4,88.8-89.9,156.1-1.8,8.5-11.2,57.7-6.7,61.8,3.6-.9,5.7-8.9,7-12.5,6.8-19.1,11-39.9,17.7-59.3,18.9-54.8,46.4-113.7,92.8-150.2s18.5-11.3,25.5-19Z"/>
  <path class="st0" d="M551,195c-2.2-.6-2.4.9-2.7,2.7-1.7,8.3,3.2,14.1-2.3,21.8-5.6,7.9-30.1,17.4-23.2.7,1.6-3.8,11.1-9.8,12.1-13s-1.9-8.7-1.6-12.6c.9-10.2,21.1-25.1,27-13.4,5.8,11.4-5.6,39.7-9.2,13.7Z"/>
</svg>