<?xml version="1.0" encoding="UTF-8"?>
<svg id="Layer_1" xmlns="http://www.w3.org/2000/svg" version="1.1" viewBox="0 0 850 930">
  <!-- Generator: Adobe Illustrator 29.1.0, SVG Export Plug-In . SVG Version: 2.1.0 Build 142)  -->
  <defs>
    <style>
      .st0 {
        fill: currentColor;
      }
    </style>
  </defs>
  <path class="st0" d="M0,904h36v-19.5c0-.9,1.6-4,1.5-5.5l1.1-.9c8.1,2.1,15.8.8,23.7-1.1,2.2,3.2,6,6.8,9.3,8.9,11.4,7.2,30.7,6.2,3.8,16.2-1.4.9,1.9,2,2,2h31.5c-1.3-3.8,1.8-20.1.8-21.8s-2.9-.7-3.6-2.9-.3-6,.3-8.4c.8-1.2,25.7-7.2,28.1-7,3.8.2,6.1,4.1,4,7.1s-14.7,4.1-16.5,7.9c5.1,1,12.6-3.4,17.4-1.8s5.2,5.2,6.7,6.2c9.8,7,17.4,11,28.7,15.3s16.9,3.9,18.1,8c1,7.2-8.4,4.8-13.1,5.5s-3,.4-2.7,1.7l77.5-.7c157.9.5,317.2,1.1,475.5,5.4,2.6,0,6.5-2.3,7.9,1.3-67.6,1.9-135,.6-202.6,0-128.5-1.1-257.2-1.2-385.9-5.1-15-.5-30.1.2-45.1,0s-18.3-2.2-26-1.1c-1.9.3-1.4,2.1-2,2.1-1.6,0-3.6-2.2-5.5-2.1l3-3c-7.4-1.7-15-.9-22.5-1-4.4,0-8.5,0-12.9,0-12.8,0-25.7,0-38.5,0v-6Z"/>
  <path class="st0" d="M398,930h-64l-6-3c21.9.6,44.8-.8,66.5,1.3,1.5.1,2.8-.5,3.4,1.7Z"/>
  <path class="st0" d="M338,377l-25.7-7.8c-71.3-43.4-78.4-138.9-34.1-205.5,37.8-56.9,93.8-83.5,160.5-92.5,67.1-9.1,160.9,17.1,199.7,75.9,19.6,29.7,34.7,62.9,39.4,98.6,1.6,11.8.8,28.5-1.1,40.6-10.9,69-56,119.7-109.8,160.2-46.7,35.2-103,58.9-131.4,113.6-11.5,22.1-14.9,48.3-14.5,73-4.1,4.2-5.9-13.1-6-14.5-8.1-111.3,96.6-140.4,162.5-201.5,24.3-22.5,49.5-50.9,60.5-82.5-.2-3.1-1.1-1-1.8.2-25.1,41.7-51.5,73-90.9,102.1-64.9,47.9-140.3,81.9-134.3,177.7s4.4,18.8,0,21.1-8.3-16.8-8.9-20.2c-8.1-51.9,12.7-94.8,45.9-132.8,13.5-15.4,29-27.2,45-40-1.1-1.3-3.5.7-4.7,1.3-40.6,21.7-83.2,80.2-90.2,125.8-3.5,23-.7,43.6,1.9,66.4-8.1-5.7-10.6-20.2-11.9-29.6-5.5-41.2,11.5-86.9,36.9-118.9,53.6-67.3,143.8-84.6,183.8-165.2,9.6-19.2,24.3-70.8,19.1-90.9-.4-1.4,0-3.1-2-3.5.2,8.5,1.9,17.6.6,26-6.9,43.7-30.4,89.1-63.6,118.5-29,25.7-64.3,42.1-95.7,64.3-62.2,43.9-103.9,120.4-80.3,197.2-1.2,0-2.1.5-3.1-.6-1.8-2.2-5.7-17.6-6.5-21.3-11.2-57.8,18.1-119.5,59.5-158.5s56.3-39.6,83-61c-.7-1.4-2.6,0-3.6.4-30.9,16.1-77.9,49.1-101,75-32.8,36.9-55.7,96.6-45,146,1.4,6.4,4.9,12.8,5,19-6.8-9.4-9.9-23-11.4-34.6-2.8-22.7,1.5-46.4,8.7-68.1,20.1-60.7,71.6-100.4,124.9-131.1,18.1-10.4,34-15.7,49.8-30.2,56.4-51.7,79.1-128.3,22.5-189.6-.9-1-5-5.5-6-5-1.8.9,0,2.4.6,3.4,3.8,6.3,10.6,12.7,14.8,19.2,33.7,52,17.4,111.6-20.8,155.6-23.2,26.7-45.2,33.4-74.3,50.2-52.9,30.5-103.6,76-120.3,136.7s-9.3,65.1,3,97.5c-2.4,2.7-9.3-11.4-9.8-12.7-27.3-73.9,26.8-151.7,79.8-197.8,13-11.3,28.6-20,41-32-2.2-.6-5.5,2.4-7.3,3.7-58.1,40.7-110,87.2-123.4,160.6-4.1,22.6-2.9,43.7,3.7,65.6,1.3,4.1,4.8,9.2,5,13.1s-3.8.4-4.9-1.2c-15.6-22.1-15-57.1-9.8-82.5,13.9-68.9,59.3-114.7,114.3-153.6,14.3-10.2,28.3-13.2,42.3-22.8,54.8-37.5,97.1-104.5,55.9-168.7-51.2-80-177.2-66-208.6,24.1-11.5,32.9,1.5,80.8,42.3,81.4,8.2.1,26.3-5.1,25.6-15.6-.6-8.9-8,2.4-10.8,4.3-10.5,7.4-32.7,2.9-41.8-5.8-14.5-13.9-14.7-30.5-10.3-49.2s5.9-8.9,13.5-10.5c35.9-7.5,68.3,26.8,73,60.5,9,65.2-59.9,116.2-120.3,112.3-96.6-6.3-147.8-99.9-132.2-189.3C217.9,27.8,463.9-50.1,623.3,44.2s22.9,14.3,25.6,18.4.9,4.3,1.1,4.4,2-1.4,3.9-.6c4,1.7,19.1,16,23.1,20,55.3,55,89.6,144.9,74.5,222.6-15.2,78.4-64.5,142.2-128.6,187.4-42.9,30.2-113.7,62.4-136.1,111.9-2,4.4-8.2,23.8-10.3,25.7-3.6,3.2-8.5.8-8.6-4.5-.4-29.8,37.1-67,59.8-83.3,48.1-34.8,98.2-57.6,140.8-101.1,35.8-36.5,68.1-93.4,74.4-144.6.2-2-.2-1.4-1.9-1.4,0,1.7.1,3.5-.3,5.2-18,80.6-61.7,136.9-127.8,184.2-46.2,33.1-117.1,62.4-141.1,115.9-4.1,9.1-7,18.5-9.8,28l-5.1,1.7c-.8-17,5.5-37.6,14.6-51.9,24.4-38.5,66.8-56.7,100.9-85.1,79.5-66.5,153.2-133.9,147.6-248.4-4.2-85.3-69.8-162.5-148-192-3.9-1.5-7.9-2.7-12-3.5,1.9,2.2,5.9,3.6,8.6,4.9,26.2,12,45,19.7,67.4,38.6,92.7,78.2,106.5,195,37.8,294.8-30.8,44.8-70.9,80.1-114.1,112.7s-87.1,47.6-103.3,104c-1.7,6-3.8,21.5-5.7,25.3s-2.4,2.6-4.3.7c-4.8-4.9,2.4-33.3,4.8-40.3,17.8-52.5,77.9-82.6,120.1-113.9,77.7-57.8,155.9-153.2,127.4-257s-98.7-154.4-197.7-167.2-242.5,46.5-265.5,165.4c-9.4,48.8,8.3,107.4,45.5,140.5-3.7.1-8.7-4.1-11.5-6.5-38.4-32.3-49.2-98.9-37.4-145.5,25.2-99.7,120.9-155.2,218.4-163.6,25.1-2.1,49,.8,73.9,2.9l1.1-1.9c-1.2-2.8-15.3-2.6-19-3-63.1-7.4-116.2,4.2-172.5,32.5-89.4,44.8-144.9,159.4-91.1,252.2,25.1,43.2,92.4,73.9,139.8,52.5,2-.9,20.1-10.3,17.3-13.2-4.2,1.7-5.9,4.9-10.3,7.2-20.7,10.7-48.5,7.6-70.9,3.5-29.4-5.4-48.5-30.8-62.3-55.7-51.3-92.7,10.9-207.3,103-243.1,77.7-30.2,149.7-32,224.2,7.9,8.6,4.6,17.3,10.1,23.3,17.7-.9,1.6-2.2-.4-3.1-.9-73.9-46-148.1-51.9-229.9-23.1s-72.9,37.1-99.9,76.1c-43,62.3-40.2,135.1,6,194.7,6.7,8.6,32,24.7,42.3,24.7h15.5ZM378,42c-43.1,14.6-90.8,36.2-122,70.5-29.2,32.2-49.3,75-53,117.9-.5,5.8-2.4,11.6,0,17.5,6.2-3.7,3.3-9.4,4-15.5,7.8-72.6,47.1-126.2,110-161l61-29.5ZM649,336c4.5-3.2,6.4-8.6,7.9-13.6,16.3-55.5,7.9-108.4-25.5-155.4-65.7-92.3-192.5-100.5-286.7-47.9-67,37.4-108.2,122.9-71.2,195.8s49.8,59.2,82.1,57.1c.6,0,0,1.7,1.9,2,10,1.2,20.2-3.5,29.6-6.1l-.5-2-32.8,4c-8.2-6.1-21.5-6.4-31.4-10.8-11.6-5.3-31.8-27.5-38.5-38.5-35.6-59.2-11.2-139.4,41.3-180.1,72.9-56.5,175.9-65.7,255-16.2,42.7,26.7,77.9,82.1,79.9,133.1,1,25.5-6.8,53.5-11,78.5ZM525,143c-46.1-21.6-104.6-14.7-148,10.5-46.5,26.9-74.5,80.7-63.5,134.6,6.7,32.8,33.9,63.3,69.9,58.9,3.2-.4,14.4-3.4,13.1-6.9-20.7,9.1-46.2-1.3-60.5-17.5-44-49.7-11.6-132.8,40.1-163.9,46.7-28.2,94.3-28.6,145.7-14.8s3.5,1,3.3-.8ZM539,358c1.9.4,2.4-1,3.5-2,24.3-20.4,43.9-61.8,44.5-93.5s-30.1-90.2-66.5-109.6c-22.2-11.8-51-11-75.5-11l1,2c-6.3-1.9-13.6,0-20,1.5-59,13.6-109.1,65.7-97.9,129.9,4,22.9,27.2,49,51.4,50.6,3-.1,2.8-.4,0-1.1-24.1-6.1-46.3-29.2-48.5-54.5-5.8-65.2,43.5-115.6,105.8-124.2,10.1-1.4,20.2-1.5,30.2-2.2l-1,2c1.9.2,3.5-1,5.4-.9,8.7.4,37,7.2,44.3,11.7s2.6,3.7,3.9,4.1c5,1.6,2.2-.7,7,3,31.3,24.2,53.2,52.1,55.4,93.6,2.1,39.5-19,71.6-43,100.5ZM338,157c-.9-.9-7.6,5-8.5,6-3.7,3.7-8.8,10.7-11.9,15.1-13.1,18.8-23.5,42.8-24.6,65.9l3-1.8c4.3-27.5,17-53,34-74.7,1.1-1.4,9.4-9,8-10.5ZM194,238c2.3-19.5,5.4-39,12-57.5s6.7-13.2,8-20.5l-4.5,8c-10.1,22-14.6,45.5-17.5,69.5l2,.5ZM659,433c49.6-51.8,81-125.3,71-198-1.7-.2-1,2.3-1,3.5,0,4.4,1,8.9,1.1,13,1.2,61.4-20.8,115.4-57.3,163.8-3.4,4.5-9.9,10.2-12.4,14s-1.8,2-1.4,3.6ZM280,395c-42.4-16-70.3-56.3-84.7-97.8l-8.3-46.2c.1,26.1,4,48.8,15.1,72.4s43.7,67.4,73.6,72.4,4.4,1.2,4.2-.7ZM214,275l-5.5-24c-2,1.3-1,2.2-.9,3.8.3,5.3,1.4,13.8,3.9,18.3s-.1,2.5,2.5,1.9ZM199,252c-4.1,37.1,13.7,75.4,37,103.5,14.8,17.8,41.7,40,64.3,45.7,3.4.8,22,4.4,23.6,3.4s.7-3.2-.6-3.5-3,.9-4.6.7c-65.7-7.4-110.1-79.9-117.8-140.3-.4-3,1.4-7.9-2-9.5ZM335,355c-35-16.7-58.5-51.3-59-90.5l-2-11.5c-1.8,29.1,6.6,58.5,26,80.5s24.1,20.7,31.7,22.3,3.5,1,3.3-.8ZM646,255c-3.8-.3-2.6,6.9-3.2,9.3-11.7,45.2-17.5,68.2-46.8,106.2-36.7,47.5-79.1,66.1-121,104-8.9,8-19.8,18.4-24,29.5l19.5-21c54.8-45.2,116.1-79.8,151.7-144.3,14.4-26.1,19.6-54.5,23.8-83.7ZM365.8,259.3c-19.9,2.7-13.9,17.9-4.7,29.2s17.7,14.2,30.5,12.5c1.8-.2,16.2-6.1,16.9-7,8.2-9.5-12-27.3-19.8-31.1s-14.8-4.7-22.9-3.6ZM742,298c1.8-.4,1.8-2,2-3.5,1-8.4,1.3-17.1,1-25.5l-1.7,6.8-1.3,22.2ZM215,277c-3.5-3.4-.5,7.9-.3,8.8,5.3,24.2,19.8,49.6,35.3,68.7s25.4,23.2,41.6,30.4,6.8,2.8,10.4,3.1l-36.3-20.2c-12.2-9.1-32.1-39.4-38.5-53.5-5.4-11.9-8.5-24.9-12.2-37.4Z"/>
  <path class="st0" d="M55,552.5c-.5-4.6-3-13.8-4.3-18.7-4.1-15.5-10.6-31.1-14-46.2s-2.9-6.2-2.7-9.6c-1.8,0-1.1,4.4-1,5.5.5,4.2,1.5,10.6,2.2,14.8,1.7,9.1,11.2,35.9,6.8,43-12.7,2.2-18.4,13.8-30,16.7,1.3-3.8-3.9-11.6-2.6-14,2-3.8,13.3-5,17.3-6.8s1.6-.1,1.3-2.2c-6.2-.5-11.8.3-17.5,3-.9,0-.6-1.6-.4-2.4,2.7-18.5,9.4-41.6,13.6-60.4s1.3-11.6,2.5-16.5c3.1-12.6,23-27.7,32.1-37.9,2.1-2.4,6.6-6.9,7.4-9.6,6.3-20.8-18.4-25.2-15.8-45.3l-5,3c-.4-4.1,0-6.6,2.9-9.6s2.8-1.3,3-1.6c.3-.4-1.7-5.4,1.2-10.2,8.2-13.3,32.8-7.1,39.4-22.6,5.4,5.2.4,11.6-3.5,16,2.7,0,6-2.9,7.4-5,2.4-3.7,2-14.1,7.1-10s2.6,13.9.4,18.1c6-1.9,5.2-10.6,6-16,8.9,4.1,6.4,14.6.6,20.6l-9.6,6.3,11-2c1,10.1,5.1,16.6,12,23.5l-4.1,2.2c-.4,6.7,3.8,14,2.1,20.3,6.2,0,19.8.4,23.9,5.6,4.7,11.6,7.1,23.3,12,35,7.2,17.4,16.8,34,24.2,51.3-11.8-6.5-26.4-13.3-31.8-26.7s-3.4-21.5-7.3-27.7-9.6-6.2-13.3-10.7-6.2-15.3-9.6-19.4c-5.8-7-11.2-2.7-19-3.5v15l-12-2.5c9.4,12.3,24.8,12.4,35,24s11.3,15.7,17.1,22.9c11.3,14,27.1,29.8,33.4,46.6s-.5,20.8-16.5,12.5c-7.8-4-13.3-10-20.1-14.9-14.2-10.2-28.3-20.6-43.9-28.6-1.1,1.2,5.8,7.4,7,8.5,8.1,7.6,23.2,16.3,29.6,23.4s3.1,4.4,3.4,6.6l3.9,51.8c-.5,1.4-12.1,6.4-14.6,8.4s-2.7,1.2-2.3,3.2c3.6-1.5,22.1-9.3,18.9.3s-32.5,13.2-36.9,18.7c4.9-.3,9.6-1.9,14.2-3.3s15.9-7,20.5-7.5,3.1.1,3.2,2.3l-42,22.5c7.7-2.3,15.5-4.8,23-7.5s10.4-6,16-5c-14.3,9.8-31.3,16.2-42,30.5,5.5-2.4,10.3-7.1,15.3-10.2s17-9.9,23.2-11.8,1.8.3.5,1.5c-4.5,4.2-13.8,10.5-17,15.2s-1.9,2.6-.6,3.2l19.6-17.4,1.9-3.6c2,17.9-.9,35.6-2,53.5s-1.5,43.3-4.5,64l1.3,9.8-17.8,17.7c3.7-.9,21.5-15.7,24-13,1.3,6.7-3.6,10.4-8,14.5s-17.7,12.9-18,14c-.7,2.1.9,1.6,2.1,1.1,2.6-1,19-11.5,19.9-10.6-3.5,10.7-1.7,22.4-2,33.6s-1.2,15.4-1.1,23,3.8,23.9,0,28-9.1,2-10,6c4.5,0,9-2.6,13.4-.6,1,4.4,2.6,7-1.7,9.3s-27.3,10.2-28.7,8.8c-1.5-11.7-1.8-23.6-3.1-35.4s-5.3-30.1-5.9-44.1,3-31.3,5-45.1-2.6-16.4-3.8-24.1c-3.4-22.5-5.1-45.2-8.3-67.7s-1.4-9.7-2.4-9.6c-2.9,0-3.6,3.3-3.6,5.5-.2,14.1,5.4,30.5,4.1,45-5.2,12.6-4.8,31.4-9.5,43.5s-21.4,9.6-27.5,13c-.3,1.7,2.3,1,3.4.9,6.4-.8,13.8-4.4,20.1-4.9s3.3,3,.2,5.2c-7.4,5.2-20,7.8-27.7,13.3l28-6.5c.5,2.1-1.1,2.3-2.3,3.2-6.3,5-13.9,8.6-19.7,14.3,3.3,1.6,17.4-9.1,19-7.5-1.8,9.6-5.3,19.1-5,29l2-1c-1.7,20.6-5.8,41.1-5,62h-14l.6,3.1c4.8,2.6,17.8,2,14.2,9.7l-9.8,2.2,3,2.5c1,3.7-11.1,2.6-13.4,2.4s-7.9-.8-8.5-2.5-1-8.8-1.2-10.8c-1.5-24.5-2.3-69.4,2.3-92.8,9.4-47.8,17.2-95,14.8-144.3-.2-3.7-.8-14.3-1.8-17.2-1.8-5.2-19.5-25.9-24.2-31.8s-9.1-7.7-8.8-10.9l11.3-14.7c2.9-2.1,10.4-5.6,13.6-3.5,4.7,3-5.8,3.6-6,5.5,2.3.9,6.4,1.6,7.9,3.6s5.7,15.7,6.4,18.6c1.2,4.9,2.1,9.7,1.7,14.8h4c-.9-12,1.2-25.7,0-37.5ZM135,416c-.5-5.3-3.1-10-9-10,1.7.9,7.1,11.9,9,10ZM128,512l-4.1.6-19.9,30.4,9.9-10.8,14-20.2Z"/>
  <path class="st0" d="M415,671l-32.5,17c-42.7,33-54.5,103.8-15.5,144,1-1.1-6.2-9.6-7.2-11.3-34.8-60.5,2.2-148.1,75.8-149.5,54.6-1,91.5,40.6,95.4,93.3,2.8,38.8-23.4,82.9-61.2,94.8-9.8,3.1-20,2.9-29.8,5.7-2.9-2.7,8.5-3,8-5-35.6-4.2-65-19.9-77.7-54.8-13.5-36.9-.3-94.7,38.2-111.3,8.4-3.6,9.4-1.8,17-1.9,4.4,0,11.8-2.7,17.1-3,16.5-1.1,28.5,3.2,43.5,9,.5-2.5-.6-1.8-1.9-2.6-26.1-16.7-70.8-14.2-95,5.2-53.4,42.7-36.5,145.4,32.6,161.3l15.3,2.1c-6.2,0-12.4,0-18.5,0s-14.7.4-19.9-.2c-23.7-2.6-51.6-40.4-58.1-61.9-12.8-42.5-.9-91.7,36.6-117.4,11-7.6,24.2-14.1,37.9-13.6ZM385,824c2.1-.8,1.8-1,1.2-2.7-1.7-4.9-4.7-10.3-6.5-15.6-9.5-29-6.9-53.7,8.8-79.7s13.9-15.6,21.4-24.6,2.4-1.6,2-3.5c-21.1,11.6-35.2,35.4-39.5,59-4.5,24.1.9,45.9,12.5,67ZM464,760c.2-6.4-10.2-6.7-14.8-5.3-32.7,9.6-24.2,81,18.1,66.1,34.5-12.2,45.1-67.7,21.2-93.8-32.5-35.5-71.2-27.3-94.9,12.1s-13.2,67.7,6.5,86.3,6.2,4.5,4.9,1.1-5.5-6.9-7.2-9.8c-33.1-59.1,26.9-141.4,80.7-91.7,4.1,3.8,14.6,19.5,16.2,24.8,2.9,9.3.7,29-3.5,37.9-14.4,30.2-54.3,42.1-58.2-.7,1.7.5,1.3,3.1,2.5,5,7.9,11.4,22,7.8,31.4.5,32.4-25.5,4.7-69.4-30.6-49.6-24.8,13.9-28.1,55.3-11.1,76.5,5.2,6.4,14.4,12.7,22.6,14.4,1,.2,3.5,1,3.3-.8-30.8-8.1-40.5-52-22.4-75.9,15.4-20.4,46.7-19.5,48.4,9.4s-19.8,34.5-36.5,25.5c-18.1-9.7,7-42.6,23.5-32ZM443,717c-41.3,7.1-59.2,55-43.9,91.3,15.1,35.7,47.2,50.2,82.9,31.2,33.7-18,48.5-74.8,27.5-106.5s-.9-3.9-2.5-2,4.1,8.9,4.7,10.8c17.2,48.5-20.1,112.9-76.5,97.5-18-4.9-32.5-26.4-35.9-44.1s2.6-49.8,21.8-64.6c6.8-5.2,16.1-7.5,21.9-13.6ZM471,729c-9.2-4.1-15.5-7.9-25.7-4.2-22.6,8.2-38,26.5-40.2,50.8s-.5,7.5,1.9,8.4c-1.1-28,24.4-58.7,53.5-56,2.6.2,4.8,1.3,7.3,1.7s3.5,1.1,3.2-.7Z"/>
  <path class="st0" d="M637.8,892.3l.7,1.8c1,0-.4-1.8,1.9-2.1,10.2-1.2,19.6,1.1,29.1,1.2s14.4-.3,22,0c19,.6,39.3-1.3,58,0,3,.2,9.3.5,10.1,3l23.8-1.1,2.5,3c-2.5.5-5.3-.6-7.5-.5-13.6.7-43.2-.8-53.8,1.4s-.8,1.9-1.2,2h-2.5s.5-2,.5-2l-125.5,3c1.5,2.8,7.5,2.3,10.5,2.4,43.4,1.6,87.5.8,130.8-.5l1.1,2,1.6-2.9,19.5,1.8c1-2.8,10.6-2,13.9-1.9s5.3,0,7.5,2l1.6-2.9c9.8,2.2,21-1,30.9,0,3.2.3,6.6.5,5.5,4-.9.1-1.7.6-2.6.6-13.7,1.2-31.8,1.7-44.8-.6l-1.1,2.1c-8.5-2.7-20.5,1.3-28.8-.4s-2.1-2-2.6-1.7-.7,5-5,1l-.6,2c-16.5-.4-33.3-.2-49.9,0-139.7,2.2-279.5,1.7-419,0-17.6-.2-35.4.9-53-1s-9.8-.9-12.5-4.5c1.2-1.8,2.6-1.4,4.4-1.5,15.1-1.1,31.9.6,47.1.1l1.9-2.1.5,2h2.5s1-2,1-2c.8,3,2.7,2,5.5,2l-3-2h25c.3-3.2-.3-1.6-1.9-1.7-17.4-1.1-35.9,1.3-53.6.4-9-.5-17.7-1.2-26.5-2.7,1.3-2.7,6.3-2.2,9.1-2.5,11.6-1.2,25.5-.1,37.5-.4,91.4-2.1,182.7-1.2,273.9-1,38.5,0,77-.5,115.4.2Z"/>
  <path class="st0" d="M436,612.5c.7-6.7,4.3-18.8,6.5-25.5,10.3-30.7,31.9-55.3,56.4-75.6-.4-.7-4.4-.3-4.8-.1-1.1.5-10.1,8.2-11.8,9.6-35.4,31.5-45.2,61.7-50.5,107.5-.2,1.7.4,3.2-1.5,4.5-2.6,0-3.5-13-3.5-15.5.6-39.2,32.2-94.7,67.6-112.4,21.3-10.6,40.3-23.1,59.7-37.3,55.3-40.5,111.1-96.1,125.2-165.8,13.8-67.9-8.7-118.3-49.1-171-3-4-7.7-7.6-10.4-12.1.8-.8,6.4,4.3,7.3,5.2,77.2,70.8,88.9,172.1,29.9,259.5-43.8,64.8-97.8,96.4-158.1,141.9s-47.9,45.3-54.6,77.4-1.6,20.7-5.1,30.1h-3.4c.5-6.6-.7-14.1,0-20.5Z"/>
  <path class="st0" d="M575,559c-.7-3.2,2.8-4.7,5.1-6.4,16.7-12.2,36.9-22.3,53.8-34.2,64.9-45.4,121.6-117.8,137.4-196.6,5.8-28.9,3-57.9,7.2-86.8,1.5,1.2,1.8,3.1,2.2,4.8,3.2,12.4,3.7,28.9,3.3,41.7-3.5,116.6-79.8,204.7-175.7,261.3-6,3.5-22.1,13.8-27.3,15.6s-3.9.7-6,.5Z"/>
  <path class="st0" d="M453,401c-.7,1.8-3.6,1.8-5.5,3-4.2,2.7-7.2,6.8-11.4,9.6-18.8,12.8-38.6,19.4-56.2,35.8-42.9,40.3-72.9,106.3-57.5,165.5,1.5,5.7,7.5,18,7.6,22.5s-2.1,4.5-5.1,3-10.4-23.7-11.5-28.5c-17-72.1,27.9-151.1,88.6-188.4,15.1-9.3,33.5-19.1,50.9-22.6Z"/>
  <path class="st0" d="M380,673l-19.6,12.4c-46.9,42.3-50.1,106.1-10.3,154.8,5.2,6.3,12.7,11,16,18.8-1,.7-11.2-1.4-13.2-2.2-11.9-4.4-33.3-35.6-38.5-47.6-16.3-37.4-9.8-79.6,15.4-111.2,7.7-9.7,20-21.7,32.4-24.1-22.2,16.6-40.4,36.4-47.5,64-11.3,43.9,4.6,81.8,35,113,2.1,2.2,4.3,5.4,7.5,5l-2-2.5c2.1-1.9,3.3,3.1,6,2.5-9.8-9.4-20.3-18.1-27.8-29.7-29-44.8-21.3-111.7,23.1-143.5s14.7-10.2,23.7-9.8Z"/>
  <path class="st0" d="M633,889l-422-2.5c0-2.3,1.7-2.3,3.5-2.5,4.4-.5,11.3-.8,16-1,42.3-1.6,85.8,1,128,1.1,82.4,0,164.4-1,247.1,0,7.2,0,5.1,1,10,1.9s13.5-2.1,17.5,3Z"/>
  <path class="st0" d="M344,679c-20.8,18.5-37.8,41.3-41.9,69.6-4.9,34.4,5.5,66,27.9,91.9l14.5,13.5c-10.6-2-19.5-8.6-26.5-16.5-30.8-34.9-35.8-90.8-9.7-129.6,8-11.9,21-26.1,35.6-28.9Z"/>
  <path class="st0" d="M291,42l.8,3.4-36.3,26.6-1-3c-.6,3.3-4.1,2.7-4.5,3s1.4,2,.6,3.9-12.4,12-15.1,15c-10.8,12-20.7,24.9-29.5,38.5-2.1,3.3-10,18.3-11.5,19.5-3,2.4-7.8-.9-11.8,6-10.7,18.1-19.1,47.8-22.4,68.8-3.2,20.3-3.4,41.9-.3,62.1l-2.9,1.1c-6-30-2.9-60.9,5.3-90.2,14.2-50.5,56.9-104.1,97.8-136.2s28.6-20.3,30.9-18.6Z"/>
  <path class="st0" d="M601,569c-1.2-4.1-2.1-6,1.5-9,8.6-7.3,23.5-14.1,33.2-20.8,31.1-21.1,61-46.2,85.3-74.8,2.3-1.7,7.6,2.4,6.5,4.6-12.3,14.5-25.5,28.6-40.1,41-21.8,18.6-48.5,37.3-73.2,51.8s-8.8,4.9-13.3,7.2Z"/>
  <path class="st0" d="M343,640c-2.5,2.9-10-12.8-10.5-14-9.6-23.1-9.4-52-4.2-76.2,10.4-48.6,40.8-94.4,83.7-119.8,1.1,1.1-3.1,4.7-4,5.5-5.1,4.8-11.8,9.1-17,14-43.2,40.2-72.6,109.9-55.7,168.7,2.2,7.8,7,13.9,7.7,21.8Z"/>
  <path class="st0" d="M189.5,154c1.4-.3,2.4,1.2,2.5,2.5.3,3.2-9.9,25-11.6,30.5-24.5,78.8-7,146.5,52,203.1,2.2,2.1,10,5.8,6,8.9-4-.9-4.1-5.5-5.9-7.1s-2.9.4-4.5-.3-11.4-10.2-13.1-12c-38.6-41.6-57.3-105.9-46.7-161.8,2.7-14,12.3-49.1,19-61,.6-1.1,1.3-2,2.3-2.7Z"/>
  <path class="st0" d="M236.9,69.9c-1.2.5-2.6.5-3.6,1.4-36.3,32.6-66.5,81.2-80.5,128l-4.3,8.7c-2.5-2.7-1.7-8.7-1.3-12.2,4.8-34.7,43.5-92.2,69.2-115.8l18-15c2.3-.5,3.1,3.2,2.4,4.9Z"/>
  <path class="st0" d="M393,673l-28.5,18c-29.9,27.8-40.8,71.9-27.5,110.5s25.9,43.5,45.5,59.5c1.2,1.2,0,1.2-1,1-12.8-2-36.9-32.4-42.9-44.1-19.3-37.5-16.1-83.3,10-116.8,10.1-13,27.7-26.7,44.4-28.1Z"/>
  <path class="st0" d="M786.9,358.1c1,1.5-1.8,10.4-2.6,12.6-7.5,22.9-28,65.1-44.7,82.3-1.1,1.1-5.6,5.3-7,4.9-3.1-.8,1.6-8.9,2.7-10.3,9.8-13.9,19.8-27.7,27.7-43.3s12.4-30.1,17.7-45.3l2.1-1.9,4.2,1Z"/>
  <path class="st0" d="M502,181c.4,2.4-.3,2.2-2.4,1.9-8.6-1.3-18.8-5.9-27.1-7.4-23.4-4.3-63.5,6-83.2,19.3s-20.4,18.7-24.3,29.2c-6.4-.4,1.2-11.3,3.2-14.3,17.8-26.7,64.4-42.1,95.3-39.7,13.3,1,26,7.1,38.5,11Z"/>
  <path class="st0" d="M184.9,95.1c1.9,2.7-9.5,18.3-11.6,21.6s-1.8,1.3-2.3,2c-7.6,12.4-13.5,26.1-21.6,38.3l-.9.9c-8.4-2.4-4.2-7.1-1.4-13.2,4.7-10.1,11.3-22.2,17.6-31.4s13.8-19,16.7-19.2,3.3.8,3.4,1.1Z"/>
  <path class="st0" d="M513,343c-.8-.8,9-14.3,10.2-16.3,6.5-11.6,19.8-34.2,21.5-46.5,3.8-27.7-6.8-61.7-29.2-79.2l-8-9c25.7,17.2,45.5,51.6,41.2,83.3-2.3,16.8-20.3,53.4-32.3,65.7s-1.4,2.5-3.4,2.1Z"/>
  <path class="st0" d="M481.8,186.3c.3,0,0,2.5,4.2.7v3c-4-1.4-8.4-2.1-12.7-2.5-30.2-3-69,2.2-89.8,26.5-1,1.2-8,12.7-9.5,11,.2-7.7,8.3-15.7,14-20.5,23.6-19.7,64.5-25.6,93.8-18.1Z"/>
  <path class="st0" d="M138.2,168.2c1.3-.7,4.3-.3,4.7,1.4-1.4,8.9-4.6,17.5-6.6,26.2s-4,25.4-6.3,27.7-2.5,1.6-3.4,1.5c-1.5-.9-2.4-2.7-2.5-4.4-.2-4.4,3-18.7,4.1-23.8s7.2-27.1,9.9-28.6Z"/>
  <path class="st0" d="M675,472c-1.5,2.9-3.7,5.2-6,7.5-11.7,11.5-42.9,35.7-57.3,42.7s-6.6,2.5-9.7,2.8c-1.5-1.4,6-6.6,7.1-7.4,10.4-7.5,23.1-13.9,33.4-21.6,7.4-5.5,15.1-14.3,22.6-19.4,3-2.1,6.2-4.2,9.9-4.6Z"/>
  <path class="st0" d="M472.7,201.3c.4.3.6,1.7,1.3,2.1,2.4,1.4,4.9-1.1,4,3.5-16.8-6.1-32.6-8.1-50.2-3.7s-24.9,7.2-33.3,14.7c-2.8,2.5-4.6,7.3-8.5,7-3-2.9,10.9-13.2,13.1-14.4,19.2-10.6,53.5-21.3,73.6-9.3Z"/>
  <path class="st0" d="M547.9,311.9h-2.9c-.2-8.1,5.4-15.1,7.5-22.8,3.6-13.1,3.5-29.7,1-43.1-1.9-10.1-6.4-19.3-9.5-29,8,6.2,11.7,19.1,13.7,28.8,5.1,24.1-.7,43.9-9.8,66.1Z"/>
  <path class="st0" d="M524,605l2.8,2.5c-8.9,13.1-16.5,29-21.9,44-1,2.8-.6,6-1.7,8.3s-5,4.2-6.1.5,4.3-19.5,5.6-23c2.9-7.5,10-19.7,15.2-25.8s5.4-3.5,6-6.5Z"/>
  <path class="st0" d="M742,377c-1.9-2.2,7.8-23.8,9.3-28.2,6.4-19.7,11.4-40.1,13.2-60.8,1,1,2.3,1.7,2.4,3.4s-.3,6.1-.5,7.7c-1.6,19.3-8.2,48.1-16,65.8-.5,1.1-6.3,14.5-8.5,12Z"/>
  <path class="st0" d="M234.7,44.5c2.9-1.6,4.8-4.7,6.2,1.8l-40.9,33.2c-3.9.3-4.1-1.7-2.4-4.5,7-10.9,26.2-24.6,37.1-30.5Z"/>
  <path class="st0" d="M139,733h-4c2.3-23.5,4-47.1,5.9-70.7s-1-11,2.1-13.3l-4,84Z"/>
  <path class="st0" d="M542,579c.4,1.8-.4,1.8-1.5,2.5-5.1,3.3-12.8,8.4-17.4,13.1s-4.8,10.9-12.1,7.4c-.2-1.1.1-2,.5-2.9,1.1-2.8,15.3-15.9,18.5-18.5,5.5-4.4,5.8-4.7,12-1.5Z"/>
  <path class="st0" d="M733,397c1.4,1.4-11.7,22.2-13.6,24.9s-13.1,17.8-14.4,16.1c-.4-2.7.7-4.5,1.8-6.7,1.8-3.6,20.2-31.4,22.1-32.9s2.1-1.9,4-1.4Z"/>
  <path class="st0" d="M298,874c1.3,1,0,1.8-1.2,2.3-5.5,2.3-27.9,2.5-34.3,1.8s-4.6-1.2-2.9-4.1c12.8-1.2,25.7-1.7,38.5,0Z"/>
  <path class="st0" d="M747.1,145.1c8-5.3,13.5,17.5,13.8,22.5s.4,3.1-1.4,4.4c-4.4-2.5-3.3-7.3-5.1-10.9s-9.1-9.1-7.3-16Z"/>
  <path class="st0" d="M180,521c-.8-11.7-6.7-21.5-11-32,7.8,4.5,13.9,12.5,14.9,21.6s1.2,10.1-3.9,10.4Z"/>
  <path class="st0" d="M522.9,258.1c4.1,15.4,4.4,30.8-1.7,45.7-.6,1.5.6,2.7-2.2,2.2,4-15.1,4.1-32.6,1-48h2.9Z"/>
  <path class="st0" d="M761.6,180.1c8.9-2.9,10.9,19.9,7.8,20.9s-9.5-15.9-9.4-18.6.5-1.9,1.6-2.3Z"/>
  <path class="st0" d="M594,530c.4,2-1.3,2.8-2.7,3.8-5.8,4.2-15.2,7.1-21.3,11.2-1.6-1.7,8.5-9.4,10.1-10.4,2.4-1.6,11.7-6.8,13.9-4.6Z"/>
  <path class="st0" d="M704,89c7.2-5.4,18.3,15.3,9.6,12.9s-10.7-11.5-9.6-12.9Z"/>
  <path class="st0" d="M729.8,481.2c4.6-.4,5.9,5.4,2.2,8.3-6.9,5.5-11-7.5-2.2-8.3Z"/>
  <path class="st0" d="M829.8,901.2l.2,1.8,1-2c3.1-.3,3.2,2.5,3,5h-14s1-3.5,1-3.5l8.8-1.3Z"/>
  <path class="st0" d="M541,318c1.5,1.7-7.5,15.2-9.5,17s-1.7,2.4-3.5,2c3.7-5.3,5.7-11.6,9.8-16.7s1.1-2.7,3.2-2.3Z"/>
  <path class="st0" d="M736.6,124.1c3.5-1.1,6.5,3,6.2,6.2-4.1,8.1-11.1-4.6-6.2-6.2Z"/>
  <path class="st0" d="M698.7,76.1c3-.9,4.4,1,5.2,3.6l-3.4,5.1-5.3-4.3c.7-1.5,1.8-3.9,3.5-4.4Z"/>
  <path class="st0" d="M541,214l-19-21c1.8,0,4.3,1.8,5.5,3,2.3,2.2,8.1,8.5,10,11s3.3,4.5,3.5,7Z"/>
  <path class="st0" d="M495,219c-4.6-3.3-9.3-6.4-14-9.5s-2.6.2-2-2.5c3.8-1,18.5,8.9,16,12Z"/>
  <path class="st0" d="M535,265l-5-24c1.7.3,1.7,2,2.3,3.2,1.9,4.5,6.9,17.4,2.7,20.8Z"/>
  <path class="st0" d="M369.8,263.3c12.5-1.6,29.1,8.4,33,20.5s2,9.7-5.2,12.3c-13.3,4.8-27.2-2.2-33.7-14.4s-6.7-16.8,5.9-18.4Z"/>
</svg>