<svg xmlns="http://www.w3.org/2000/svg" viewBox="0 0 1440 320" preserveAspectRatio="none">
    <defs>
      <mask id="wave-mask-2">
        <!-- Full visible base -->
        <rect width="100%" height="100%" fill="white"/>
        <!-- Cut out the wave path -->
        <path
          d="M0,192L34.3,170.7C68.6,149,137,107,206,106.7C274.3,107,343,149,411,181.3C480,213,549,235,617,240C685.7,245,754,235,823,197.3C891.4,160,960,96,1029,101.3C1097.1,107,1166,181,1234,192C1302.9,203,1371,149,1406,122.7L1440,96L1440,320L0,320Z"
          fill="black"
        />
      </mask>
    </defs>
  
    <!-- Background (non-wave area) -->
    <rect width="100%" height="100%" fill="var(--wave-bg)" mask="url(#wave-mask-2)" />
  
    <!-- Wave on top -->
    <path
      d="M0,192L34.3,170.7C68.6,149,137,107,206,106.7C274.3,107,343,149,411,181.3C480,213,549,235,617,240C685.7,245,754,235,823,197.3C891.4,160,960,96,1029,101.3C1097.1,107,1166,181,1234,192C1302.9,203,1371,149,1406,122.7L1440,96L1440,320L0,320Z"
      fill="var(--wave-fg)"
    />
  </svg>