<svg xmlns="http://www.w3.org/2000/svg" viewBox="0 0 1440 320">
    <path fill="currentColor" fill-opacity="1"
        d="M0,128L34.3,117.3C68.6,107,137,85,206,106.7C274.3,128,343,192,411,224C480,256,549,256,617,240C685.7,224,754,192,823,192C891.4,192,960,224,1029,240C1097.1,256,1166,256,1234,229.3C1302.9,203,1371,149,1406,122.7L1440,96L1440,320L1405.7,320C1371.4,320,1303,320,1234,320C1165.7,320,1097,320,1029,320C960,320,891,320,823,320C754.3,320,686,320,617,320C548.6,320,480,320,411,320C342.9,320,274,320,206,320C137.1,320,69,320,34,320L0,320Z"></path>
</svg>