<svg xmlns="http://www.w3.org/2000/svg" viewBox="0 0 1440 320">
    <path fill="currentColor" fill-opacity="1"
        d="M0,192L34.3,170.7C68.6,149,137,107,206,106.7C274.3,107,343,149,411,181.3C480,213,549,235,617,240C685.7,245,754,235,823,197.3C891.4,160,960,96,1029,101.3C1097.1,107,1166,181,1234,192C1302.9,203,1371,149,1406,122.7L1440,96L1440,320L1405.7,320C1371.4,320,1303,320,1234,320C1165.7,320,1097,320,1029,320C960,320,891,320,823,320C754.3,320,686,320,617,320C548.6,320,480,320,411,320C342.9,320,274,320,206,320C137.1,320,69,320,34,320L0,320Z"></path>
</svg>