<svg xmlns="http://www.w3.org/2000/svg" viewBox="0 0 1440 320" preserveAspectRatio="none">
    <defs>
      <mask id="wave-mask-1">
        <!-- Fill entire area with white (visible) -->
        <rect width="100%" height="100%" fill="white"/>
        <!-- Mask the wave shape (make it transparent) -->
        <path
          d="M0,128L34.3,117.3C68.6,107,137,85,206,106.7C274.3,128,343,192,411,224C480,256,549,256,617,240C685.7,224,754,192,823,192C891.4,192,960,224,1029,240C1097.1,256,1166,256,1234,229.3C1302.9,203,1371,149,1406,122.7L1440,96L1440,320L0,320Z"
          fill="black"
        />
      </mask>
    </defs>
  
    <!-- Solid background behind the wave, masked by the wave -->
    <rect width="100%" height="100%" fill="var(--wave-bg)" mask="url(#wave-mask-1)" />
  
    <!-- Wave path with opacity -->
    <path
      d="M0,128L34.3,117.3C68.6,107,137,85,206,106.7C274.3,128,343,192,411,224C480,256,549,256,617,240C685.7,224,754,192,823,192C891.4,192,960,224,1029,240C1097.1,256,1166,256,1234,229.3C1302.9,203,1371,149,1406,122.7L1440,96L1440,320L0,320Z"
      fill="var(--wave-fg)"
    />
  </svg>
  