<svg xmlns="http://www.w3.org/2000/svg" viewBox="0 0 1440 320" preserveAspectRatio="none">
    <defs>
      <mask id="wave-mask-3">
        <!-- Base rectangle: visible -->
        <rect width="100%" height="100%" fill="white"/>
        <!-- Wave path: becomes transparent (cut out) -->
        <path
          d="M0,256L40,261.3C80,267,160,277,240,277.3C320,277,400,267,480,234.7C560,203,640,149,720,144C800,139,880,181,960,197.3C1040,213,1120,203,1200,192C1280,181,1360,171,1400,165.3L1440,160L1440,320L0,320Z"
          fill="black"
        />
      </mask>
    </defs>
  
    <!-- Background rectangle with wave cut out -->
    <rect width="100%" height="100%" fill="var(--wave-bg)" mask="url(#wave-mask-3)" />
  
    <!-- Foreground wave shape -->
    <path
      d="M0,256L40,261.3C80,267,160,277,240,277.3C320,277,400,267,480,234.7C560,203,640,149,720,144C800,139,880,181,960,197.3C1040,213,1120,203,1200,192C1280,181,1360,171,1400,165.3L1440,160L1440,320L0,320Z"
      fill="var(--wave-fg)"
    />
  </svg>