<svg version="1.2" xmlns="http://www.w3.org/2000/svg" viewBox="0 0 232 252">
	<title>dereo_icon-svg</title>
	<style>
		.s0 { fill: currentColor; }
		svg { color: #f8d8ba; }
	</style>
	<g>
		<path id="p2" fill-rule="evenodd" class="s0"
			d="m11.1 9.5c10.5-1.5 21.8 1.1 32.1 3.3 10.1 2.4 20 5.2 29.9 8.1 7 2.2 13.8 1.9 20.9 2.6 7.4 0.6 14.5 2.6 21.9 4 9.3 1.9 18.7 3.6 28 5.7 9.9 2.7 20.6 5.4 29.8 10.2 10.3 6.2 19.6 14.4 29.3 21.5 6.4 4.6 11.6 9.4 18.7 12.6q0.8 0.9 1.6 1.9c-1.6 3.6-3.4 7-5.5 10.3-5.6 9.2-11.9 18.1-18.9 26.3-6.1 6.5-11.9 12.6-20.1 16.5-5.8 3.1-12 4.8-18.4 6-3.6 0.3-7.3 0.6-10.9 0.9-0.8 12.4-4.4 24.4-11.6 34.5-4.3 5.6-11 8.6-17.7 10.3-9.7 2.2-19.5 2.1-29.4 1.3-2.5 2.9-5.2 5.4-8.3 7.7-3.2-3.9-6-7.8-9.7-11.3-1 1-2.3 2-2.9 3.3 1.6 4 5.7 7.2 8.6 10.4-2.5 1.3-5.1 2.4-7.9 3-1.5-3.8-3-7.7-4.7-11.4-1-2-1.7-3.9-3.9-4.7-1.7 0.6-2 1.9-2.8 3.3 2.5 4.8 4.8 9.7 7.2 14.5q-3.5 0.5-7 0.8-0.4 0.6-0.7 1.2c1.6 9.2 3.1 18.5 4.6 27.7 0.7 4.2 1.7 8.3 1.7 12.7-1.2-1.7-1.9-3.2-2.4-5.2-2.7-12.1-5.7-24.2-8.7-36.3q2.4-0.3 4.8-0.6c-1-4.3-1.7-8.6-2.4-12.9q-1.7-0.4-3.3-0.8-0.9 1.2-1.9 2.4c1 3.9 2 7.9 2.6 11.9-6.9-2.8-12.9-7-19.2-11 2.6-4 5.1-8 7.7-12.1 1-1.7 2.1-3.2 1.9-5.3-2.3 0.3-3.5 1.8-5 3.3-3.5 3.6-6.7 7.3-10.2 10.8-4.8-3-8.5-7.1-9.4-12.9-0.4-3.4 0.9-6.2 2.4-9.1 2.6-4.8 5-9.7 7.5-14.6 1-2.1 2.1-3.9 1.8-6.3-1-12-5.9-25-5.2-37 0.9-6.7 4.3-13.1 6.8-19.2 4.2-9.2 8.8-18.3 13.9-27.1-3-4.7-5.9-9.7-9.4-14.1-3.9-5-9-8.5-13.9-13-5.1-4.3-11.3-9.6-13.7-16-1.2-3.6-0.8-5.2 1.4-8.1zm79.7 71.7q0.7 1.5 1.4 3c10.9 1.1 23.8 1.4 34.1 5.6 4.9 2 6.7 6.8 8.4 11.4 1.9 5.4 2.5 11.1 3.7 16.6 0.2 2 2.5 2.3 3.8 3.2 0.6-5.9-1.6-10.5-2.6-16.5-1.4-6.9-3.1-14.5-9.1-19-5.9-4.2-14.6-4.7-21.5-4.8-6 0.2-12.2-0.5-18.2 0.5zm-17.2 68.6c-4.9-2.7-10.7-0.7-15.4 1.5-0.9 2.4 1.2 4.1 2.5 5.9 1.1 1.3 2.1 3.1 4.1 2.5 3.9-2.3 7-5.8 8.8-9.9z" />
		<path id="p6" class="s0"
			d="m82.7 193.4c7.3 9 14.6 18 21.9 27 1.6 1.9 3.2 3.7 4.4 5.8l-0.8 2.4c-2.7-3.2-5.8-6.1-8.6-9.2-6.9-8.1-14.4-15.7-21.1-23.9 1.4-0.7 2.8-1.4 4.2-2.1z" />
		<path id="p7" class="s0"
			d="m70.4 199c1.9 2.3 3 5.5 4.2 8.2 4.7 11 9.4 22 14.3 32.9 1 2.1 1.6 4.2 2.1 6.5-1.8-1.1-2.7-2.2-3.6-4.1-6.8-14.1-14.1-28.1-20.9-42.3q1.9-0.6 3.9-1.2z" />
	</g>
</svg>